<svg width="1248" height="360" viewBox="0 0 1248 360" xmlns="http://www.w3.org/2000/svg"><title>From the first day t</title><path d="M8.832 26.072h33.984v7.968H16.32v21.504h24.576v7.968H16.32V95H8.832V26.072zM80.64 56.504c-1.6-1.408-3.872-2.112-6.816-2.112-2.88 0-5.28.992-7.2 2.976s-3.168 4.352-3.744 7.104V95h-7.104V47.768h6.912v5.952c.704-1.984 1.936-3.648 3.696-4.992 1.76-1.344 4.176-2.016 7.248-2.016 1.792 0 3.424.304 4.896.912 1.472.608 2.56 1.456 3.264 2.544l-1.152 6.336zm8.736 14.88c0-3.52.64-6.784 1.92-9.792 1.28-3.008 3.008-5.616 5.184-7.824s4.72-3.936 7.632-5.184a23.034 23.034 0 0 1 9.168-1.872c3.2 0 6.256.624 9.168 1.872 2.912 1.248 5.456 2.976 7.632 5.184 2.176 2.208 3.904 4.816 5.184 7.824 1.28 3.008 1.92 6.272 1.92 9.792 0 3.52-.64 6.784-1.92 9.792-1.28 3.008-3.008 5.616-5.184 7.824s-4.72 3.936-7.632 5.184a23.034 23.034 0 0 1-9.168 1.872c-3.2 0-6.256-.624-9.168-1.872-2.912-1.248-5.456-2.976-7.632-5.184-2.176-2.208-3.904-4.816-5.184-7.824-1.28-3.008-1.92-6.272-1.92-9.792zm23.904-16.992c-2.432 0-4.672.416-6.72 1.248-2.048.832-3.808 2-5.28 3.504-1.472 1.504-2.64 3.296-3.504 5.376-.864 2.08-1.296 4.368-1.296 6.864 0 2.496.432 4.784 1.296 6.864.864 2.08 2.032 3.872 3.504 5.376 1.472 1.504 3.232 2.672 5.28 3.504 2.048.832 4.288 1.248 6.72 1.248 2.368 0 4.592-.416 6.672-1.248 2.08-.832 3.856-2 5.328-3.504 1.472-1.504 2.64-3.296 3.504-5.376.864-2.08 1.296-4.368 1.296-6.864 0-2.496-.432-4.784-1.296-6.864-.864-2.08-2.032-3.872-3.504-5.376-1.472-1.504-3.248-2.672-5.328-3.504-2.08-.832-4.304-1.248-6.672-1.248zm89.856-7.68c2.368 0 4.736.416 7.104 1.248a18.285 18.285 0 0 1 6.336 3.792c1.856 1.696 3.36 3.856 4.512 6.48 1.152 2.624 1.728 5.728 1.728 9.312V95h-7.104V68.024c0-4.416-1.184-7.792-3.552-10.128-2.368-2.336-5.376-3.504-9.024-3.504-1.536 0-3.04.24-4.512.72-1.472.48-2.8 1.152-3.984 2.016a12.701 12.701 0 0 0-2.976 3.024 9.69 9.69 0 0 0-1.584 3.84V95h-7.104V68.024c0-4.416-1.184-7.792-3.552-10.128-2.368-2.336-5.376-3.504-9.024-3.504-1.536 0-3.04.24-4.512.72-1.472.48-2.8 1.152-3.984 2.016a12.701 12.701 0 0 0-2.976 3.024 9.69 9.69 0 0 0-1.584 3.84V95h-7.104V47.768h6.912v5.76c.64-1.856 2.16-3.456 4.56-4.8 2.4-1.344 5.296-2.016 8.688-2.016 3.072 0 6.08.704 9.024 2.112 2.944 1.408 5.344 3.488 7.2 6.24 1.408-2.24 3.552-4.192 6.432-5.856 2.88-1.664 6.24-2.496 10.08-2.496zm89.76 43.392c-.704 1.664-2.064 3.072-4.08 4.224-2.016 1.152-4.464 1.728-7.344 1.728-4.224 0-7.504-1.28-9.84-3.84-2.336-2.56-3.504-6.592-3.504-12.096V55.256h-8.64v-2.304l13.344-17.088h2.304v11.904h17.472v7.488h-17.376v23.616c0 3.264.672 5.6 2.016 7.008 1.344 1.408 3.296 2.112 5.856 2.112 1.984 0 3.616-.416 4.896-1.248 1.28-.832 2.368-1.76 3.264-2.784l1.632 6.144zM312.864 95h-7.104V25.112h7.104v28.416c.64-1.856 2.144-3.456 4.512-4.8 2.368-1.344 5.344-2.016 8.928-2.016 2.496 0 4.944.416 7.344 1.248 2.4.832 4.56 2.128 6.48 3.888 1.92 1.76 3.472 3.984 4.656 6.672 1.184 2.688 1.776 5.888 1.776 9.6V95h-7.104V68.408c0-4.544-1.232-8.016-3.696-10.416-2.464-2.4-5.584-3.6-9.36-3.6-1.6 0-3.152.24-4.656.72a15.465 15.465 0 0 0-4.128 2.016c-1.248.864-2.288 1.872-3.12 3.024a9.326 9.326 0 0 0-1.632 3.84V95zm91.008-24.48c0 1.024-.096 2.112-.288 3.264h-37.536c.512 4.928 2.368 8.528 5.568 10.8 3.2 2.272 7.072 3.408 11.616 3.408 3.456 0 6.416-.512 8.88-1.536 2.464-1.024 4.656-2.56 6.576-4.608l1.344 6.24c-.512 1.088-1.296 2.112-2.352 3.072-1.056.96-2.336 1.792-3.84 2.496s-3.168 1.28-4.992 1.728a23.865 23.865 0 0 1-5.712.672c-3.392 0-6.576-.56-9.552-1.68-2.976-1.12-5.552-2.736-7.728-4.848-2.176-2.112-3.888-4.704-5.136-7.776-1.248-3.072-1.872-6.528-1.872-10.368 0-3.456.544-6.672 1.632-9.648 1.088-2.976 2.64-5.584 4.656-7.824 2.016-2.24 4.432-4 7.248-5.28 2.816-1.28 5.984-1.92 9.504-1.92 3.264 0 6.256.624 8.976 1.872 2.72 1.248 5.04 2.96 6.96 5.136s3.408 4.704 4.464 7.584c1.056 2.88 1.584 5.952 1.584 9.216zm-21.984-16.128c-1.728 0-3.424.24-5.088.72-1.664.48-3.2 1.216-4.608 2.208-1.408.992-2.608 2.24-3.6 3.744s-1.68 3.28-2.064 5.328h29.76c-.512-3.712-2.08-6.64-4.704-8.784-2.624-2.144-5.856-3.216-9.696-3.216zm89.376-18.624c-.832-1.024-2-1.952-3.504-2.784-1.504-.832-3.184-1.248-5.04-1.248-2.368 0-4.336.768-5.904 2.304-1.568 1.536-2.352 3.744-2.352 6.624v7.104h16.992v7.68h-16.992V95h-7.104V55.448h-9.024v-7.68h9.024v-8.16c0-4.992 1.232-8.832 3.696-11.52 2.464-2.688 6.096-4.032 10.896-4.032 2.176 0 4.24.496 6.192 1.488s3.344 2.32 4.176 3.984l-1.056 6.24zm11.808 12h7.104V95h-7.104V47.768zM480.96 32.12c0-1.6.544-2.944 1.632-4.032 1.088-1.088 2.432-1.632 4.032-1.632s2.944.544 4.032 1.632c1.088 1.088 1.632 2.432 1.632 4.032s-.544 2.944-1.632 4.032c-1.088 1.088-2.432 1.632-4.032 1.632s-2.944-.544-4.032-1.632c-1.088-1.088-1.632-2.432-1.632-4.032zm50.208 24.384c-1.6-1.408-3.872-2.112-6.816-2.112-2.88 0-5.28.992-7.2 2.976s-3.168 4.352-3.744 7.104V95h-7.104V47.768h6.912v5.952c.704-1.984 1.936-3.648 3.696-4.992 1.76-1.344 4.176-2.016 7.248-2.016 1.792 0 3.424.304 4.896.912 1.472.608 2.56 1.456 3.264 2.544l-1.152 6.336zm18.72 15.456c-3.072-1.6-5.392-3.504-6.96-5.712-1.568-2.208-2.352-4.56-2.352-7.056 0-3.648 1.184-6.64 3.552-8.976 2.368-2.336 5.888-3.504 10.56-3.504 1.6 0 3.12.224 4.56.672 1.44.448 2.736 1.008 3.888 1.68 1.152.672 2.128 1.408 2.928 2.208.8.8 1.392 1.584 1.776 2.352l-1.344 6.432c-1.664-1.728-3.504-3.104-5.52-4.128-2.016-1.024-4.208-1.536-6.576-1.536-1.664 0-3.2.352-4.608 1.056-1.408.704-2.112 1.92-2.112 3.648 0 1.472.608 2.656 1.824 3.552 1.216.896 2.624 1.792 4.224 2.688l5.76 3.168c3.584 1.92 6.256 3.92 8.016 6 1.76 2.08 2.64 4.688 2.64 7.824 0 2.048-.384 3.904-1.152 5.568a12.944 12.944 0 0 1-3.216 4.32c-1.376 1.216-3.056 2.16-5.04 2.832-1.984.672-4.224 1.008-6.72 1.008-1.728 0-3.376-.224-4.944-.672a20.054 20.054 0 0 1-4.32-1.776c-1.312-.736-2.448-1.584-3.408-2.544s-1.696-1.952-2.208-2.976l1.536-6.528c1.92 2.24 4.064 3.872 6.432 4.896 2.368 1.024 4.896 1.536 7.584 1.536.96 0 1.936-.08 2.928-.24a8.09 8.09 0 0 0 2.688-.912 6.31 6.31 0 0 0 1.968-1.68c.512-.672.768-1.552.768-2.64 0-1.536-.72-2.896-2.16-4.08-1.44-1.184-3.28-2.352-5.52-3.504l-5.472-2.976zm61.824 18.144c-.704 1.664-2.064 3.072-4.08 4.224-2.016 1.152-4.464 1.728-7.344 1.728-4.224 0-7.504-1.28-9.84-3.84-2.336-2.56-3.504-6.592-3.504-12.096V55.256h-8.64v-2.304l13.344-17.088h2.304v11.904h17.472v7.488h-17.376v23.616c0 3.264.672 5.6 2.016 7.008 1.344 1.408 3.296 2.112 5.856 2.112 1.984 0 3.616-.416 4.896-1.248 1.28-.832 2.368-1.76 3.264-2.784l1.632 6.144zM693.6 25.112V95h-6.912v-5.664c-.384.896-1.04 1.744-1.968 2.544-.928.8-2.08 1.504-3.456 2.112-1.376.608-2.912 1.104-4.608 1.488-1.696.384-3.504.576-5.424.576-3.2 0-6.24-.608-9.12-1.824a24.158 24.158 0 0 1-7.632-5.088c-2.208-2.176-3.968-4.768-5.28-7.776-1.312-3.008-1.968-6.336-1.968-9.984 0-3.648.656-6.976 1.968-9.984 1.312-3.008 3.072-5.6 5.28-7.776a24.158 24.158 0 0 1 7.632-5.088c2.88-1.216 5.92-1.824 9.12-1.824 3.84 0 7.152.688 9.936 2.064 2.784 1.376 4.56 2.928 5.328 4.656v-28.32h7.104zm-39.264 46.272c0 2.624.432 4.976 1.296 7.056.864 2.08 2.048 3.856 3.552 5.328 1.504 1.472 3.312 2.608 5.424 3.408 2.112.8 4.416 1.2 6.912 1.2 3.648 0 6.864-.784 9.648-2.352 2.784-1.568 4.56-3.792 5.328-6.672V63.416c-.768-2.88-2.544-5.104-5.328-6.672-2.784-1.568-6-2.352-9.648-2.352-2.496 0-4.8.4-6.912 1.2-2.112.8-3.92 1.936-5.424 3.408-1.504 1.472-2.688 3.248-3.552 5.328-.864 2.08-1.296 4.432-1.296 7.056zm71.808-24.672c2.88 0 5.552.4 8.016 1.2 2.464.8 4.576 1.968 6.336 3.504 1.76 1.536 3.152 3.456 4.176 5.76s1.536 4.928 1.536 7.872V95h-6.912v-4.512c-1.216 1.664-3.104 3.008-5.664 4.032-2.56 1.024-5.344 1.536-8.352 1.536-5.888 0-10.496-1.376-13.824-4.128-3.328-2.752-4.992-6.528-4.992-11.328 0-2.304.48-4.384 1.44-6.24a14.202 14.202 0 0 1 3.984-4.752c1.696-1.312 3.696-2.304 6-2.976 2.304-.672 4.8-1.008 7.488-1.008.896 0 1.936.064 3.12.192 1.184.128 2.416.368 3.696.72 1.28.352 2.528.8 3.744 1.344 1.216.544 2.272 1.232 3.168 2.064v-2.976c0-4.352-1.296-7.536-3.888-9.552-2.592-2.016-5.808-3.024-9.648-3.024-3.008 0-5.792.608-8.352 1.824-2.56 1.216-4.544 2.752-5.952 4.608l-1.92-6.336c.64-1.088 1.536-2.096 2.688-3.024 1.152-.928 2.464-1.744 3.936-2.448a24.244 24.244 0 0 1 4.8-1.68 22.89 22.89 0 0 1 5.376-.624zm12.96 31.488c-.896-1.664-2.576-2.896-5.04-3.696-2.464-.8-5.168-1.2-8.112-1.2-3.84 0-6.864.656-9.072 1.968-2.208 1.312-3.312 3.088-3.312 5.328 0 2.176 1.04 4.016 3.12 5.52 2.08 1.504 5.168 2.256 9.264 2.256 3.008 0 5.728-.544 8.16-1.632 2.432-1.088 4.096-2.496 4.992-4.224V78.2zm16.512-30.432h8.16l15.744 37.248 15.168-37.248h8.16l-28.128 67.68h-8.16l8.928-21.6-19.872-46.08zm111.936 42.336c-.704 1.664-2.064 3.072-4.08 4.224-2.016 1.152-4.464 1.728-7.344 1.728-4.224 0-7.504-1.28-9.84-3.84-2.336-2.56-3.504-6.592-3.504-12.096V55.256h-8.64v-2.304l13.344-17.088h2.304v11.904h17.472v7.488h-17.376v23.616c0 3.264.672 5.6 2.016 7.008 1.344 1.408 3.296 2.112 5.856 2.112 1.984 0 3.616-.416 4.896-1.248 1.28-.832 2.368-1.76 3.264-2.784l1.632 6.144zm9.6-18.72c0-3.52.64-6.784 1.92-9.792 1.28-3.008 3.008-5.616 5.184-7.824s4.72-3.936 7.632-5.184a23.034 23.034 0 0 1 9.168-1.872c3.2 0 6.256.624 9.168 1.872 2.912 1.248 5.456 2.976 7.632 5.184 2.176 2.208 3.904 4.816 5.184 7.824 1.28 3.008 1.92 6.272 1.92 9.792 0 3.52-.64 6.784-1.92 9.792-1.28 3.008-3.008 5.616-5.184 7.824s-4.72 3.936-7.632 5.184a23.034 23.034 0 0 1-9.168 1.872c-3.2 0-6.256-.624-9.168-1.872-2.912-1.248-5.456-2.976-7.632-5.184-2.176-2.208-3.904-4.816-5.184-7.824-1.28-3.008-1.92-6.272-1.92-9.792zm23.904-16.992c-2.432 0-4.672.416-6.72 1.248-2.048.832-3.808 2-5.28 3.504-1.472 1.504-2.64 3.296-3.504 5.376-.864 2.08-1.296 4.368-1.296 6.864 0 2.496.432 4.784 1.296 6.864.864 2.08 2.032 3.872 3.504 5.376 1.472 1.504 3.232 2.672 5.28 3.504 2.048.832 4.288 1.248 6.72 1.248 2.368 0 4.592-.416 6.672-1.248 2.08-.832 3.856-2 5.328-3.504 1.472-1.504 2.64-3.296 3.504-5.376.864-2.08 1.296-4.368 1.296-6.864 0-2.496-.432-4.784-1.296-6.864-.864-2.08-2.032-3.872-3.504-5.376-1.472-1.504-3.248-2.672-5.328-3.504-2.08-.832-4.304-1.248-6.672-1.248zm91.488 35.712c-.704 1.664-2.064 3.072-4.08 4.224-2.016 1.152-4.464 1.728-7.344 1.728-4.224 0-7.504-1.28-9.84-3.84-2.336-2.56-3.504-6.592-3.504-12.096V55.256h-8.64v-2.304l13.344-17.088h2.304v11.904h17.472v7.488H974.88v23.616c0 3.264.672 5.6 2.016 7.008 1.344 1.408 3.296 2.112 5.856 2.112 1.984 0 3.616-.416 4.896-1.248 1.28-.832 2.368-1.76 3.264-2.784l1.632 6.144zM1012.512 95h-7.104V25.112h7.104v28.416c.64-1.856 2.144-3.456 4.512-4.8 2.368-1.344 5.344-2.016 8.928-2.016 2.496 0 4.944.416 7.344 1.248 2.4.832 4.56 2.128 6.48 3.888 1.92 1.76 3.472 3.984 4.656 6.672 1.184 2.688 1.776 5.888 1.776 9.6V95h-7.104V68.408c0-4.544-1.232-8.016-3.696-10.416-2.464-2.4-5.584-3.6-9.36-3.6-1.6 0-3.152.24-4.656.72a15.465 15.465 0 0 0-4.128 2.016c-1.248.864-2.288 1.872-3.12 3.024a9.326 9.326 0 0 0-1.632 3.84V95zm49.056-47.232h7.104V95h-7.104V47.768zm-2.112-15.648c0-1.6.544-2.944 1.632-4.032 1.088-1.088 2.432-1.632 4.032-1.632s2.944.544 4.032 1.632c1.088 1.088 1.632 2.432 1.632 4.032s-.544 2.944-1.632 4.032c-1.088 1.088-2.432 1.632-4.032 1.632s-2.944-.544-4.032-1.632c-1.088-1.088-1.632-2.432-1.632-4.032zm32.064 39.84c-3.072-1.6-5.392-3.504-6.96-5.712-1.568-2.208-2.352-4.56-2.352-7.056 0-3.648 1.184-6.64 3.552-8.976 2.368-2.336 5.888-3.504 10.56-3.504 1.6 0 3.12.224 4.56.672 1.44.448 2.736 1.008 3.888 1.68 1.152.672 2.128 1.408 2.928 2.208.8.8 1.392 1.584 1.776 2.352l-1.344 6.432c-1.664-1.728-3.504-3.104-5.52-4.128-2.016-1.024-4.208-1.536-6.576-1.536-1.664 0-3.2.352-4.608 1.056-1.408.704-2.112 1.92-2.112 3.648 0 1.472.608 2.656 1.824 3.552 1.216.896 2.624 1.792 4.224 2.688l5.76 3.168c3.584 1.92 6.256 3.92 8.016 6 1.76 2.08 2.64 4.688 2.64 7.824 0 2.048-.384 3.904-1.152 5.568a12.944 12.944 0 0 1-3.216 4.32c-1.376 1.216-3.056 2.16-5.04 2.832-1.984.672-4.224 1.008-6.72 1.008-1.728 0-3.376-.224-4.944-.672a20.054 20.054 0 0 1-4.32-1.776c-1.312-.736-2.448-1.584-3.408-2.544s-1.696-1.952-2.208-2.976l1.536-6.528c1.92 2.24 4.064 3.872 6.432 4.896 2.368 1.024 4.896 1.536 7.584 1.536.96 0 1.936-.08 2.928-.24a8.09 8.09 0 0 0 2.688-.912 6.31 6.31 0 0 0 1.968-1.68c.512-.672.768-1.552.768-2.64 0-1.536-.72-2.896-2.16-4.08-1.44-1.184-3.28-2.352-5.52-3.504l-5.472-2.976zm36.96 23.424c-1.024-.32-2-.928-2.928-1.824-.928-.896-1.392-2.24-1.392-4.032 0-1.792.624-3.264 1.872-4.416 1.248-1.152 2.736-1.728 4.464-1.728 1.728 0 3.216.576 4.464 1.728 1.248 1.152 1.872 2.656 1.872 4.512 0 1.536-.256 2.88-.768 4.032a33.28 33.28 0 0 1-1.728 3.36l-6.24 11.424h-5.376l5.76-13.056zM14.88 191.96c-3.072-1.6-5.392-3.504-6.96-5.712-1.568-2.208-2.352-4.56-2.352-7.056 0-3.648 1.184-6.64 3.552-8.976 2.368-2.336 5.888-3.504 10.56-3.504 1.6 0 3.12.224 4.56.672 1.44.448 2.736 1.008 3.888 1.68 1.152.672 2.128 1.408 2.928 2.208.8.8 1.392 1.584 1.776 2.352l-1.344 6.432c-1.664-1.728-3.504-3.104-5.52-4.128-2.016-1.024-4.208-1.536-6.576-1.536-1.664 0-3.2.352-4.608 1.056-1.408.704-2.112 1.92-2.112 3.648 0 1.472.608 2.656 1.824 3.552 1.216.896 2.624 1.792 4.224 2.688l5.76 3.168c3.584 1.92 6.256 3.92 8.016 6 1.76 2.08 2.64 4.688 2.64 7.824 0 2.048-.384 3.904-1.152 5.568a12.944 12.944 0 0 1-3.216 4.32c-1.376 1.216-3.056 2.16-5.04 2.832-1.984.672-4.224 1.008-6.72 1.008-1.728 0-3.376-.224-4.944-.672a20.054 20.054 0 0 1-4.32-1.776c-1.312-.736-2.448-1.584-3.408-2.544s-1.696-1.952-2.208-2.976l1.536-6.528c1.92 2.24 4.064 3.872 6.432 4.896 2.368 1.024 4.896 1.536 7.584 1.536.96 0 1.936-.08 2.928-.24a8.09 8.09 0 0 0 2.688-.912 6.31 6.31 0 0 0 1.968-1.68c.512-.672.768-1.552.768-2.64 0-1.536-.72-2.896-2.16-4.08-1.44-1.184-3.28-2.352-5.52-3.504l-5.472-2.976zM55.2 215h-7.104v-69.888H55.2v28.416c.64-1.856 2.144-3.456 4.512-4.8 2.368-1.344 5.344-2.016 8.928-2.016 2.496 0 4.944.416 7.344 1.248 2.4.832 4.56 2.128 6.48 3.888 1.92 1.76 3.472 3.984 4.656 6.672 1.184 2.688 1.776 5.888 1.776 9.6V215h-7.104v-26.592c0-4.544-1.232-8.016-3.696-10.416-2.464-2.4-5.584-3.6-9.36-3.6-1.6 0-3.152.24-4.656.72a15.465 15.465 0 0 0-4.128 2.016c-1.248.864-2.288 1.872-3.12 3.024a9.326 9.326 0 0 0-1.632 3.84V215zm91.008-24.48c0 1.024-.096 2.112-.288 3.264h-37.536c.512 4.928 2.368 8.528 5.568 10.8 3.2 2.272 7.072 3.408 11.616 3.408 3.456 0 6.416-.512 8.88-1.536 2.464-1.024 4.656-2.56 6.576-4.608l1.344 6.24c-.512 1.088-1.296 2.112-2.352 3.072-1.056.96-2.336 1.792-3.84 2.496s-3.168 1.28-4.992 1.728a23.865 23.865 0 0 1-5.712.672c-3.392 0-6.576-.56-9.552-1.68-2.976-1.12-5.552-2.736-7.728-4.848-2.176-2.112-3.888-4.704-5.136-7.776-1.248-3.072-1.872-6.528-1.872-10.368 0-3.456.544-6.672 1.632-9.648 1.088-2.976 2.64-5.584 4.656-7.824 2.016-2.24 4.432-4 7.248-5.28 2.816-1.28 5.984-1.92 9.504-1.92 3.264 0 6.256.624 8.976 1.872 2.72 1.248 5.04 2.96 6.96 5.136s3.408 4.704 4.464 7.584c1.056 2.88 1.584 5.952 1.584 9.216zm-21.984-16.128c-1.728 0-3.424.24-5.088.72-1.664.48-3.2 1.216-4.608 2.208-1.408.992-2.608 2.24-3.6 3.744s-1.68 3.28-2.064 5.328h29.76c-.512-3.712-2.08-6.64-4.704-8.784-2.624-2.144-5.856-3.216-9.696-3.216zm76.8 16.128c0 1.024-.096 2.112-.288 3.264H163.2c.512 4.928 2.368 8.528 5.568 10.8 3.2 2.272 7.072 3.408 11.616 3.408 3.456 0 6.416-.512 8.88-1.536 2.464-1.024 4.656-2.56 6.576-4.608l1.344 6.24c-.512 1.088-1.296 2.112-2.352 3.072-1.056.96-2.336 1.792-3.84 2.496s-3.168 1.28-4.992 1.728a23.865 23.865 0 0 1-5.712.672c-3.392 0-6.576-.56-9.552-1.68-2.976-1.12-5.552-2.736-7.728-4.848-2.176-2.112-3.888-4.704-5.136-7.776-1.248-3.072-1.872-6.528-1.872-10.368 0-3.456.544-6.672 1.632-9.648 1.088-2.976 2.64-5.584 4.656-7.824 2.016-2.24 4.432-4 7.248-5.28 2.816-1.28 5.984-1.92 9.504-1.92 3.264 0 6.256.624 8.976 1.872 2.72 1.248 5.04 2.96 6.96 5.136s3.408 4.704 4.464 7.584c1.056 2.88 1.584 5.952 1.584 9.216zm-21.984-16.128c-1.728 0-3.424.24-5.088.72-1.664.48-3.2 1.216-4.608 2.208-1.408.992-2.608 2.24-3.6 3.744s-1.68 3.28-2.064 5.328h29.76c-.512-3.712-2.08-6.64-4.704-8.784-2.624-2.144-5.856-3.216-9.696-3.216zm59.904 2.112c-1.6-1.408-3.872-2.112-6.816-2.112-2.88 0-5.28.992-7.2 2.976s-3.168 4.352-3.744 7.104V215h-7.104v-47.232h6.912v5.952c.704-1.984 1.936-3.648 3.696-4.992 1.76-1.344 4.176-2.016 7.248-2.016 1.792 0 3.424.304 4.896.912 1.472.608 2.56 1.456 3.264 2.544l-1.152 6.336zm80.64-8.736v49.344c0 2.88-.528 5.52-1.584 7.92-1.056 2.4-2.544 4.448-4.464 6.144-1.92 1.696-4.208 3.008-6.864 3.936-2.656.928-5.552 1.392-8.688 1.392-4.032 0-7.856-.736-11.472-2.208-3.616-1.472-6.416-3.84-8.4-7.104l2.016-6.624c2.048 2.688 4.544 4.72 7.488 6.096 2.944 1.376 6.112 2.064 9.504 2.064 1.792 0 3.6-.192 5.424-.576a12.575 12.575 0 0 0 4.944-2.208c1.472-1.088 2.672-2.608 3.6-4.56.928-1.952 1.392-4.464 1.392-7.536v-5.376c-.384.832-1.04 1.648-1.968 2.448-.928.8-2.048 1.504-3.36 2.112-1.312.608-2.816 1.088-4.512 1.44-1.696.352-3.504.528-5.424.528-3.2 0-6.24-.592-9.12-1.776a24.303 24.303 0 0 1-7.632-4.944c-2.208-2.112-3.968-4.64-5.28-7.584-1.312-2.944-1.968-6.208-1.968-9.792 0-3.52.656-6.768 1.968-9.744 1.312-2.976 3.072-5.536 5.28-7.68a23.888 23.888 0 0 1 7.632-4.992c2.88-1.184 5.92-1.776 9.12-1.776 1.92 0 3.728.176 5.424.528 1.696.352 3.232.848 4.608 1.488 1.376.64 2.528 1.36 3.456 2.16.928.8 1.584 1.616 1.968 2.448v-5.568h6.912zm-7.104 15.456c-.768-2.816-2.544-4.992-5.328-6.528-2.784-1.536-6-2.304-9.648-2.304-2.496 0-4.8.384-6.912 1.152-2.112.768-3.92 1.856-5.424 3.264-1.504 1.408-2.688 3.136-3.552 5.184-.864 2.048-1.296 4.352-1.296 6.912 0 2.56.432 4.864 1.296 6.912.864 2.048 2.048 3.776 3.552 5.184 1.504 1.408 3.312 2.48 5.424 3.216 2.112.736 4.416 1.104 6.912 1.104 3.648 0 6.864-.752 9.648-2.256 2.784-1.504 4.56-3.664 5.328-6.48v-15.36zm48.192-6.72c-1.6-1.408-3.872-2.112-6.816-2.112-2.88 0-5.28.992-7.2 2.976s-3.168 4.352-3.744 7.104V215h-7.104v-47.232h6.912v5.952c.704-1.984 1.936-3.648 3.696-4.992 1.76-1.344 4.176-2.016 7.248-2.016 1.792 0 3.424.304 4.896.912 1.472.608 2.56 1.456 3.264 2.544l-1.152 6.336zm53.76 14.016c0 1.024-.096 2.112-.288 3.264h-37.536c.512 4.928 2.368 8.528 5.568 10.8 3.2 2.272 7.072 3.408 11.616 3.408 3.456 0 6.416-.512 8.88-1.536 2.464-1.024 4.656-2.56 6.576-4.608l1.344 6.24c-.512 1.088-1.296 2.112-2.352 3.072-1.056.96-2.336 1.792-3.84 2.496s-3.168 1.28-4.992 1.728a23.865 23.865 0 0 1-5.712.672c-3.392 0-6.576-.56-9.552-1.68-2.976-1.12-5.552-2.736-7.728-4.848-2.176-2.112-3.888-4.704-5.136-7.776-1.248-3.072-1.872-6.528-1.872-10.368 0-3.456.544-6.672 1.632-9.648 1.088-2.976 2.64-5.584 4.656-7.824 2.016-2.24 4.432-4 7.248-5.28 2.816-1.28 5.984-1.92 9.504-1.92 3.264 0 6.256.624 8.976 1.872 2.72 1.248 5.04 2.96 6.96 5.136s3.408 4.704 4.464 7.584c1.056 2.88 1.584 5.952 1.584 9.216zm-21.984-16.128c-1.728 0-3.424.24-5.088.72-1.664.48-3.2 1.216-4.608 2.208-1.408.992-2.608 2.24-3.6 3.744s-1.68 3.28-2.064 5.328h29.76c-.512-3.712-2.08-6.64-4.704-8.784-2.624-2.144-5.856-3.216-9.696-3.216zm76.8 16.128c0 1.024-.096 2.112-.288 3.264h-37.536c.512 4.928 2.368 8.528 5.568 10.8 3.2 2.272 7.072 3.408 11.616 3.408 3.456 0 6.416-.512 8.88-1.536 2.464-1.024 4.656-2.56 6.576-4.608l1.344 6.24c-.512 1.088-1.296 2.112-2.352 3.072-1.056.96-2.336 1.792-3.84 2.496s-3.168 1.28-4.992 1.728a23.865 23.865 0 0 1-5.712.672c-3.392 0-6.576-.56-9.552-1.68-2.976-1.12-5.552-2.736-7.728-4.848-2.176-2.112-3.888-4.704-5.136-7.776-1.248-3.072-1.872-6.528-1.872-10.368 0-3.456.544-6.672 1.632-9.648 1.088-2.976 2.64-5.584 4.656-7.824 2.016-2.24 4.432-4 7.248-5.28 2.816-1.28 5.984-1.92 9.504-1.92 3.264 0 6.256.624 8.976 1.872 2.72 1.248 5.04 2.96 6.96 5.136s3.408 4.704 4.464 7.584c1.056 2.88 1.584 5.952 1.584 9.216zm-21.984-16.128c-1.728 0-3.424.24-5.088.72-1.664.48-3.2 1.216-4.608 2.208-1.408.992-2.608 2.24-3.6 3.744s-1.68 3.28-2.064 5.328h29.76c-.512-3.712-2.08-6.64-4.704-8.784-2.624-2.144-5.856-3.216-9.696-3.216zm78.144-29.28V215h-6.912v-5.664c-.384.896-1.04 1.744-1.968 2.544-.928.8-2.08 1.504-3.456 2.112-1.376.608-2.912 1.104-4.608 1.488-1.696.384-3.504.576-5.424.576-3.2 0-6.24-.608-9.12-1.824a24.158 24.158 0 0 1-7.632-5.088c-2.208-2.176-3.968-4.768-5.28-7.776-1.312-3.008-1.968-6.336-1.968-9.984 0-3.648.656-6.976 1.968-9.984 1.312-3.008 3.072-5.6 5.28-7.776a24.158 24.158 0 0 1 7.632-5.088c2.88-1.216 5.92-1.824 9.12-1.824 3.84 0 7.152.688 9.936 2.064 2.784 1.376 4.56 2.928 5.328 4.656v-28.32h7.104zm-39.264 46.272c0 2.624.432 4.976 1.296 7.056.864 2.08 2.048 3.856 3.552 5.328 1.504 1.472 3.312 2.608 5.424 3.408 2.112.8 4.416 1.2 6.912 1.2 3.648 0 6.864-.784 9.648-2.352 2.784-1.568 4.56-3.792 5.328-6.672v-15.936c-.768-2.88-2.544-5.104-5.328-6.672-2.784-1.568-6-2.352-9.648-2.352-2.496 0-4.8.4-6.912 1.2-2.112.8-3.92 1.936-5.424 3.408-1.504 1.472-2.688 3.248-3.552 5.328-.864 2.08-1.296 4.432-1.296 7.056zm128.64 13.344l14.496-36.96h8.16L618.816 215h-7.584l-11.904-37.056L587.712 215h-7.776l-18.624-47.232h7.776l14.304 37.056 12.096-37.056h7.584l11.712 36.96zm49.056-38.016c2.88 0 5.552.4 8.016 1.2 2.464.8 4.576 1.968 6.336 3.504 1.76 1.536 3.152 3.456 4.176 5.76s1.536 4.928 1.536 7.872V215h-6.912v-4.512c-1.216 1.664-3.104 3.008-5.664 4.032-2.56 1.024-5.344 1.536-8.352 1.536-5.888 0-10.496-1.376-13.824-4.128-3.328-2.752-4.992-6.528-4.992-11.328 0-2.304.48-4.384 1.44-6.24a14.202 14.202 0 0 1 3.984-4.752c1.696-1.312 3.696-2.304 6-2.976 2.304-.672 4.8-1.008 7.488-1.008.896 0 1.936.064 3.12.192 1.184.128 2.416.368 3.696.72 1.28.352 2.528.8 3.744 1.344 1.216.544 2.272 1.232 3.168 2.064v-2.976c0-4.352-1.296-7.536-3.888-9.552-2.592-2.016-5.808-3.024-9.648-3.024-3.008 0-5.792.608-8.352 1.824-2.56 1.216-4.544 2.752-5.952 4.608l-1.92-6.336c.64-1.088 1.536-2.096 2.688-3.024 1.152-.928 2.464-1.744 3.936-2.448a24.244 24.244 0 0 1 4.8-1.68 22.89 22.89 0 0 1 5.376-.624zM676.8 198.2c-.896-1.664-2.576-2.896-5.04-3.696-2.464-.8-5.168-1.2-8.112-1.2-3.84 0-6.864.656-9.072 1.968-2.208 1.312-3.312 3.088-3.312 5.328 0 2.176 1.04 4.016 3.12 5.52 2.08 1.504 5.168 2.256 9.264 2.256 3.008 0 5.728-.544 8.16-1.632 2.432-1.088 4.096-2.496 4.992-4.224v-4.32zm29.664-6.24c-3.072-1.6-5.392-3.504-6.96-5.712-1.568-2.208-2.352-4.56-2.352-7.056 0-3.648 1.184-6.64 3.552-8.976 2.368-2.336 5.888-3.504 10.56-3.504 1.6 0 3.12.224 4.56.672 1.44.448 2.736 1.008 3.888 1.68 1.152.672 2.128 1.408 2.928 2.208.8.8 1.392 1.584 1.776 2.352l-1.344 6.432c-1.664-1.728-3.504-3.104-5.52-4.128-2.016-1.024-4.208-1.536-6.576-1.536-1.664 0-3.2.352-4.608 1.056-1.408.704-2.112 1.92-2.112 3.648 0 1.472.608 2.656 1.824 3.552 1.216.896 2.624 1.792 4.224 2.688l5.76 3.168c3.584 1.92 6.256 3.92 8.016 6 1.76 2.08 2.64 4.688 2.64 7.824 0 2.048-.384 3.904-1.152 5.568a12.944 12.944 0 0 1-3.216 4.32c-1.376 1.216-3.056 2.16-5.04 2.832-1.984.672-4.224 1.008-6.72 1.008-1.728 0-3.376-.224-4.944-.672a20.054 20.054 0 0 1-4.32-1.776c-1.312-.736-2.448-1.584-3.408-2.544s-1.696-1.952-2.208-2.976l1.536-6.528c1.92 2.24 4.064 3.872 6.432 4.896 2.368 1.024 4.896 1.536 7.584 1.536.96 0 1.936-.08 2.928-.24a8.09 8.09 0 0 0 2.688-.912 6.31 6.31 0 0 0 1.968-1.68c.512-.672.768-1.552.768-2.64 0-1.536-.72-2.896-2.16-4.08-1.44-1.184-3.28-2.352-5.52-3.504l-5.472-2.976zm87.744 18.144c-.704 1.664-2.064 3.072-4.08 4.224-2.016 1.152-4.464 1.728-7.344 1.728-4.224 0-7.504-1.28-9.84-3.84-2.336-2.56-3.504-6.592-3.504-12.096v-24.864h-8.64v-2.304l13.344-17.088h2.304v11.904h17.472v7.488h-17.376v23.616c0 3.264.672 5.6 2.016 7.008 1.344 1.408 3.296 2.112 5.856 2.112 1.984 0 3.616-.416 4.896-1.248 1.28-.832 2.368-1.76 3.264-2.784l1.632 6.144zM814.176 215h-7.104v-69.888h7.104v28.416c.64-1.856 2.144-3.456 4.512-4.8 2.368-1.344 5.344-2.016 8.928-2.016 2.496 0 4.944.416 7.344 1.248 2.4.832 4.56 2.128 6.48 3.888 1.92 1.76 3.472 3.984 4.656 6.672 1.184 2.688 1.776 5.888 1.776 9.6V215h-7.104v-26.592c0-4.544-1.232-8.016-3.696-10.416-2.464-2.4-5.584-3.6-9.36-3.6-1.6 0-3.152.24-4.656.72a15.465 15.465 0 0 0-4.128 2.016c-1.248.864-2.288 1.872-3.12 3.024a9.326 9.326 0 0 0-1.632 3.84V215zm91.008-24.48c0 1.024-.096 2.112-.288 3.264H867.36c.512 4.928 2.368 8.528 5.568 10.8 3.2 2.272 7.072 3.408 11.616 3.408 3.456 0 6.416-.512 8.88-1.536 2.464-1.024 4.656-2.56 6.576-4.608l1.344 6.24c-.512 1.088-1.296 2.112-2.352 3.072-1.056.96-2.336 1.792-3.84 2.496s-3.168 1.28-4.992 1.728a23.865 23.865 0 0 1-5.712.672c-3.392 0-6.576-.56-9.552-1.68-2.976-1.12-5.552-2.736-7.728-4.848-2.176-2.112-3.888-4.704-5.136-7.776-1.248-3.072-1.872-6.528-1.872-10.368 0-3.456.544-6.672 1.632-9.648 1.088-2.976 2.64-5.584 4.656-7.824 2.016-2.24 4.432-4 7.248-5.28 2.816-1.28 5.984-1.92 9.504-1.92 3.264 0 6.256.624 8.976 1.872 2.72 1.248 5.04 2.96 6.96 5.136s3.408 4.704 4.464 7.584c1.056 2.88 1.584 5.952 1.584 9.216zM883.2 174.392c-1.728 0-3.424.24-5.088.72-1.664.48-3.2 1.216-4.608 2.208-1.408.992-2.608 2.24-3.6 3.744s-1.68 3.28-2.064 5.328h29.76c-.512-3.712-2.08-6.64-4.704-8.784-2.624-2.144-5.856-3.216-9.696-3.216zm104.064-29.28V215h-6.912v-5.664c-.384.896-1.04 1.744-1.968 2.544-.928.8-2.08 1.504-3.456 2.112-1.376.608-2.912 1.104-4.608 1.488-1.696.384-3.504.576-5.424.576-3.2 0-6.24-.608-9.12-1.824a24.158 24.158 0 0 1-7.632-5.088c-2.208-2.176-3.968-4.768-5.28-7.776-1.312-3.008-1.968-6.336-1.968-9.984 0-3.648.656-6.976 1.968-9.984 1.312-3.008 3.072-5.6 5.28-7.776a24.158 24.158 0 0 1 7.632-5.088c2.88-1.216 5.92-1.824 9.12-1.824 3.84 0 7.152.688 9.936 2.064 2.784 1.376 4.56 2.928 5.328 4.656v-28.32h7.104zM948 191.384c0 2.624.432 4.976 1.296 7.056.864 2.08 2.048 3.856 3.552 5.328 1.504 1.472 3.312 2.608 5.424 3.408 2.112.8 4.416 1.2 6.912 1.2 3.648 0 6.864-.784 9.648-2.352 2.784-1.568 4.56-3.792 5.328-6.672v-15.936c-.768-2.88-2.544-5.104-5.328-6.672-2.784-1.568-6-2.352-9.648-2.352-2.496 0-4.8.4-6.912 1.2-2.112.8-3.92 1.936-5.424 3.408-1.504 1.472-2.688 3.248-3.552 5.328-.864 2.08-1.296 4.432-1.296 7.056zm80.352-14.88c-1.6-1.408-3.872-2.112-6.816-2.112-2.88 0-5.28.992-7.2 2.976s-3.168 4.352-3.744 7.104V215h-7.104v-47.232h6.912v5.952c.704-1.984 1.936-3.648 3.696-4.992 1.76-1.344 4.176-2.016 7.248-2.016 1.792 0 3.424.304 4.896.912 1.472.608 2.56 1.456 3.264 2.544l-1.152 6.336zm11.808-8.736h7.104V215h-7.104v-47.232zm-2.112-15.648c0-1.6.544-2.944 1.632-4.032 1.088-1.088 2.432-1.632 4.032-1.632s2.944.544 4.032 1.632c1.088 1.088 1.632 2.432 1.632 4.032s-.544 2.944-1.632 4.032c-1.088 1.088-2.432 1.632-4.032 1.632s-2.944-.544-4.032-1.632c-1.088-1.088-1.632-2.432-1.632-4.032zm37.92 62.88l-18.912-47.232h7.968l15.168 38.304 15.072-38.304h8.064L1084.32 215h-8.352zm37.344-47.232h7.104V215h-7.104v-47.232zm-2.112-15.648c0-1.6.544-2.944 1.632-4.032 1.088-1.088 2.432-1.632 4.032-1.632s2.944.544 4.032 1.632c1.088 1.088 1.632 2.432 1.632 4.032s-.544 2.944-1.632 4.032c-1.088 1.088-2.432 1.632-4.032 1.632s-2.944-.544-4.032-1.632c-1.088-1.088-1.632-2.432-1.632-4.032zm45.888 14.592c2.496 0 4.96.432 7.392 1.296a18.476 18.476 0 0 1 6.48 3.936c1.888 1.76 3.424 3.984 4.608 6.672 1.184 2.688 1.776 5.888 1.776 9.6V215h-7.104v-26.4c0-4.544-1.216-8.048-3.648-10.512-2.432-2.464-5.568-3.696-9.408-3.696-1.6 0-3.152.256-4.656.768-1.504.512-2.88 1.2-4.128 2.064-1.248.864-2.288 1.872-3.12 3.024a9.307 9.307 0 0 0-1.632 3.744V215h-7.104v-47.232h6.912v5.76c.64-1.856 2.208-3.456 4.704-4.8 2.496-1.344 5.472-2.016 8.928-2.016zm78.528 1.056v49.344c0 2.88-.528 5.52-1.584 7.92-1.056 2.4-2.544 4.448-4.464 6.144-1.92 1.696-4.208 3.008-6.864 3.936-2.656.928-5.552 1.392-8.688 1.392-4.032 0-7.856-.736-11.472-2.208-3.616-1.472-6.416-3.84-8.4-7.104l2.016-6.624c2.048 2.688 4.544 4.72 7.488 6.096 2.944 1.376 6.112 2.064 9.504 2.064 1.792 0 3.6-.192 5.424-.576a12.575 12.575 0 0 0 4.944-2.208c1.472-1.088 2.672-2.608 3.6-4.56.928-1.952 1.392-4.464 1.392-7.536v-5.376c-.384.832-1.04 1.648-1.968 2.448-.928.8-2.048 1.504-3.36 2.112-1.312.608-2.816 1.088-4.512 1.44-1.696.352-3.504.528-5.424.528-3.2 0-6.24-.592-9.12-1.776a24.303 24.303 0 0 1-7.632-4.944c-2.208-2.112-3.968-4.64-5.28-7.584-1.312-2.944-1.968-6.208-1.968-9.792 0-3.52.656-6.768 1.968-9.744 1.312-2.976 3.072-5.536 5.28-7.68a23.888 23.888 0 0 1 7.632-4.992c2.88-1.184 5.92-1.776 9.12-1.776 1.92 0 3.728.176 5.424.528 1.696.352 3.232.848 4.608 1.488 1.376.64 2.528 1.36 3.456 2.16.928.8 1.584 1.616 1.968 2.448v-5.568h6.912zm-7.104 15.456c-.768-2.816-2.544-4.992-5.328-6.528-2.784-1.536-6-2.304-9.648-2.304-2.496 0-4.8.384-6.912 1.152-2.112.768-3.92 1.856-5.424 3.264-1.504 1.408-2.688 3.136-3.552 5.184-.864 2.048-1.296 4.352-1.296 6.912 0 2.56.432 4.864 1.296 6.912.864 2.048 2.048 3.776 3.552 5.184 1.504 1.408 3.312 2.48 5.424 3.216 2.112.736 4.416 1.104 6.912 1.104 3.648 0 6.864-.752 9.648-2.256 2.784-1.504 4.56-3.664 5.328-6.48v-15.36zM14.88 311.96c-3.072-1.6-5.392-3.504-6.96-5.712-1.568-2.208-2.352-4.56-2.352-7.056 0-3.648 1.184-6.64 3.552-8.976 2.368-2.336 5.888-3.504 10.56-3.504 1.6 0 3.12.224 4.56.672 1.44.448 2.736 1.008 3.888 1.68 1.152.672 2.128 1.408 2.928 2.208.8.8 1.392 1.584 1.776 2.352l-1.344 6.432c-1.664-1.728-3.504-3.104-5.52-4.128-2.016-1.024-4.208-1.536-6.576-1.536-1.664 0-3.2.352-4.608 1.056-1.408.704-2.112 1.92-2.112 3.648 0 1.472.608 2.656 1.824 3.552 1.216.896 2.624 1.792 4.224 2.688l5.76 3.168c3.584 1.92 6.256 3.92 8.016 6 1.76 2.08 2.64 4.688 2.64 7.824 0 2.048-.384 3.904-1.152 5.568a12.944 12.944 0 0 1-3.216 4.32c-1.376 1.216-3.056 2.16-5.04 2.832-1.984.672-4.224 1.008-6.72 1.008-1.728 0-3.376-.224-4.944-.672a20.054 20.054 0 0 1-4.32-1.776c-1.312-.736-2.448-1.584-3.408-2.544s-1.696-1.952-2.208-2.976l1.536-6.528c1.92 2.24 4.064 3.872 6.432 4.896 2.368 1.024 4.896 1.536 7.584 1.536.96 0 1.936-.08 2.928-.24a8.09 8.09 0 0 0 2.688-.912 6.31 6.31 0 0 0 1.968-1.68c.512-.672.768-1.552.768-2.64 0-1.536-.72-2.896-2.16-4.08-1.44-1.184-3.28-2.352-5.52-3.504l-5.472-2.976zm33.216 43.488v-67.68h6.912v5.664c.384-.832 1.04-1.664 1.968-2.496.928-.832 2.08-1.552 3.456-2.16 1.376-.608 2.912-1.104 4.608-1.488 1.696-.384 3.504-.576 5.424-.576 3.2 0 6.24.608 9.12 1.824a24.158 24.158 0 0 1 7.632 5.088c2.208 2.176 3.968 4.768 5.28 7.776 1.312 3.008 1.968 6.336 1.968 9.984 0 3.648-.656 6.976-1.968 9.984-1.312 3.008-3.072 5.6-5.28 7.776a24.158 24.158 0 0 1-7.632 5.088c-2.88 1.216-5.92 1.824-9.12 1.824-3.84 0-7.152-.688-9.936-2.064-2.784-1.376-4.56-2.928-5.328-4.656v26.112h-7.104zm39.264-44.064c0-2.624-.432-4.976-1.296-7.056-.864-2.08-2.048-3.856-3.552-5.328-1.504-1.472-3.312-2.608-5.424-3.408-2.112-.8-4.416-1.2-6.912-1.2-3.648 0-6.864.784-9.648 2.352-2.784 1.568-4.56 3.792-5.328 6.672v15.936c.768 2.88 2.544 5.104 5.328 6.672 2.784 1.568 6 2.352 9.648 2.352 2.496 0 4.8-.4 6.912-1.2 2.112-.8 3.92-1.936 5.424-3.408 1.504-1.472 2.688-3.248 3.552-5.328.864-2.08 1.296-4.432 1.296-7.056zm19.968-23.616h7.104V335h-7.104v-47.232zm-2.112-15.648c0-1.6.544-2.944 1.632-4.032 1.088-1.088 2.432-1.632 4.032-1.632s2.944.544 4.032 1.632c1.088 1.088 1.632 2.432 1.632 4.032s-.544 2.944-1.632 4.032c-1.088 1.088-2.432 1.632-4.032 1.632s-2.944-.544-4.032-1.632c-1.088-1.088-1.632-2.432-1.632-4.032zm50.208 24.384c-1.6-1.408-3.872-2.112-6.816-2.112-2.88 0-5.28.992-7.2 2.976s-3.168 4.352-3.744 7.104V335h-7.104v-47.232h6.912v5.952c.704-1.984 1.936-3.648 3.696-4.992 1.76-1.344 4.176-2.016 7.248-2.016 1.792 0 3.424.304 4.896.912 1.472.608 2.56 1.456 3.264 2.544l-1.152 6.336zm11.808-8.736h7.104V335h-7.104v-47.232zm-2.112-15.648c0-1.6.544-2.944 1.632-4.032 1.088-1.088 2.432-1.632 4.032-1.632s2.944.544 4.032 1.632c1.088 1.088 1.632 2.432 1.632 4.032s-.544 2.944-1.632 4.032c-1.088 1.088-2.432 1.632-4.032 1.632s-2.944-.544-4.032-1.632c-1.088-1.088-1.632-2.432-1.632-4.032zm53.952 57.984c-.704 1.664-2.064 3.072-4.08 4.224-2.016 1.152-4.464 1.728-7.344 1.728-4.224 0-7.504-1.28-9.84-3.84-2.336-2.56-3.504-6.592-3.504-12.096v-24.864h-8.64v-2.304l13.344-17.088h2.304v11.904h17.472v7.488h-17.376v23.616c0 3.264.672 5.6 2.016 7.008 1.344 1.408 3.296 2.112 5.856 2.112 1.984 0 3.616-.416 4.896-1.248 1.28-.832 2.368-1.76 3.264-2.784l1.632 6.144zm35.52-18.72c0-3.52.64-6.784 1.92-9.792 1.28-3.008 3.008-5.616 5.184-7.824s4.72-3.936 7.632-5.184a23.034 23.034 0 0 1 9.168-1.872c3.2 0 6.256.624 9.168 1.872 2.912 1.248 5.456 2.976 7.632 5.184 2.176 2.208 3.904 4.816 5.184 7.824 1.28 3.008 1.92 6.272 1.92 9.792 0 3.52-.64 6.784-1.92 9.792-1.28 3.008-3.008 5.616-5.184 7.824s-4.72 3.936-7.632 5.184a23.034 23.034 0 0 1-9.168 1.872c-3.2 0-6.256-.624-9.168-1.872-2.912-1.248-5.456-2.976-7.632-5.184-2.176-2.208-3.904-4.816-5.184-7.824-1.28-3.008-1.92-6.272-1.92-9.792zm23.904-16.992c-2.432 0-4.672.416-6.72 1.248-2.048.832-3.808 2-5.28 3.504-1.472 1.504-2.64 3.296-3.504 5.376-.864 2.08-1.296 4.368-1.296 6.864 0 2.496.432 4.784 1.296 6.864.864 2.08 2.032 3.872 3.504 5.376 1.472 1.504 3.232 2.672 5.28 3.504 2.048.832 4.288 1.248 6.72 1.248 2.368 0 4.592-.416 6.672-1.248 2.08-.832 3.856-2 5.328-3.504 1.472-1.504 2.64-3.296 3.504-5.376.864-2.08 1.296-4.368 1.296-6.864 0-2.496-.432-4.784-1.296-6.864-.864-2.08-2.032-3.872-3.504-5.376-1.472-1.504-3.248-2.672-5.328-3.504-2.08-.832-4.304-1.248-6.672-1.248zm65.376-18.624c-.832-1.024-2-1.952-3.504-2.784-1.504-.832-3.184-1.248-5.04-1.248-2.368 0-4.336.768-5.904 2.304-1.568 1.536-2.352 3.744-2.352 6.624v7.104h16.992v7.68h-16.992V335h-7.104v-39.552h-9.024v-7.68h9.024v-8.16c0-4.992 1.232-8.832 3.696-11.52 2.464-2.688 6.096-4.032 10.896-4.032 2.176 0 4.24.496 6.192 1.488s3.344 2.32 4.176 3.984l-1.056 6.24zm76.32 52.416c-.512.96-1.264 1.904-2.256 2.832-.992.928-2.208 1.76-3.648 2.496s-3.104 1.344-4.992 1.824-3.984.72-6.288.72c-3.264 0-6.368-.592-9.312-1.776-2.944-1.184-5.536-2.848-7.776-4.992s-4.032-4.736-5.376-7.776c-1.344-3.04-2.016-6.416-2.016-10.128 0-3.712.672-7.072 2.016-10.08 1.344-3.008 3.136-5.6 5.376-7.776a23.778 23.778 0 0 1 7.776-5.04c2.944-1.184 6.048-1.776 9.312-1.776 2.176 0 4.176.224 6 .672 1.824.448 3.456 1.04 4.896 1.776s2.656 1.568 3.648 2.496c.992.928 1.744 1.872 2.256 2.832l-1.728 5.76c-1.408-1.472-3.296-2.816-5.664-4.032-2.368-1.216-5.056-1.824-8.064-1.824-2.752 0-5.28.4-7.584 1.2-2.304.8-4.272 1.952-5.904 3.456a16.199 16.199 0 0 0-3.84 5.376c-.928 2.08-1.392 4.4-1.392 6.96 0 2.56.464 4.88 1.392 6.96a15.886 15.886 0 0 0 3.888 5.376c1.664 1.504 3.648 2.656 5.952 3.456 2.304.8 4.864 1.2 7.68 1.2 3.264 0 6.032-.608 8.304-1.824 2.272-1.216 4.144-2.592 5.616-4.128l1.728 5.76zm12.864-40.416h7.104V335h-7.104v-47.232zm-2.112-15.648c0-1.6.544-2.944 1.632-4.032 1.088-1.088 2.432-1.632 4.032-1.632s2.944.544 4.032 1.632c1.088 1.088 1.632 2.432 1.632 4.032s-.544 2.944-1.632 4.032c-1.088 1.088-2.432 1.632-4.032 1.632s-2.944-.544-4.032-1.632c-1.088-1.088-1.632-2.432-1.632-4.032zm37.92 62.88l-18.912-47.232h7.968l15.168 38.304 15.072-38.304h8.064L477.216 335h-8.352zm37.344-47.232h7.104V335h-7.104v-47.232zm-2.112-15.648c0-1.6.544-2.944 1.632-4.032 1.088-1.088 2.432-1.632 4.032-1.632s2.944.544 4.032 1.632c1.088 1.088 1.632 2.432 1.632 4.032s-.544 2.944-1.632 4.032c-1.088 1.088-2.432 1.632-4.032 1.632s-2.944-.544-4.032-1.632c-1.088-1.088-1.632-2.432-1.632-4.032zm25.344-7.008h7.104V335h-7.104v-69.888zm23.232 22.656h7.104V335h-7.104v-47.232zm-2.112-15.648c0-1.6.544-2.944 1.632-4.032 1.088-1.088 2.432-1.632 4.032-1.632s2.944.544 4.032 1.632c1.088 1.088 1.632 2.432 1.632 4.032s-.544 2.944-1.632 4.032c-1.088 1.088-2.432 1.632-4.032 1.632s-2.944-.544-4.032-1.632c-1.088-1.088-1.632-2.432-1.632-4.032zm23.328 15.648H604.8v6.048l-22.464 33.504h23.616V335H573.12v-6.816l21.888-32.736h-21.12v-7.68zm61.92-1.056c2.88 0 5.552.4 8.016 1.2 2.464.8 4.576 1.968 6.336 3.504 1.76 1.536 3.152 3.456 4.176 5.76s1.536 4.928 1.536 7.872V335h-6.912v-4.512c-1.216 1.664-3.104 3.008-5.664 4.032-2.56 1.024-5.344 1.536-8.352 1.536-5.888 0-10.496-1.376-13.824-4.128-3.328-2.752-4.992-6.528-4.992-11.328 0-2.304.48-4.384 1.44-6.24a14.202 14.202 0 0 1 3.984-4.752c1.696-1.312 3.696-2.304 6-2.976 2.304-.672 4.8-1.008 7.488-1.008.896 0 1.936.064 3.12.192 1.184.128 2.416.368 3.696.72 1.28.352 2.528.8 3.744 1.344 1.216.544 2.272 1.232 3.168 2.064v-2.976c0-4.352-1.296-7.536-3.888-9.552-2.592-2.016-5.808-3.024-9.648-3.024-3.008 0-5.792.608-8.352 1.824-2.56 1.216-4.544 2.752-5.952 4.608l-1.92-6.336c.64-1.088 1.536-2.096 2.688-3.024 1.152-.928 2.464-1.744 3.936-2.448a24.244 24.244 0 0 1 4.8-1.68 22.89 22.89 0 0 1 5.376-.624zm12.96 31.488c-.896-1.664-2.576-2.896-5.04-3.696-2.464-.8-5.168-1.2-8.112-1.2-3.84 0-6.864.656-9.072 1.968-2.208 1.312-3.312 3.088-3.312 5.328 0 2.176 1.04 4.016 3.12 5.52 2.08 1.504 5.168 2.256 9.264 2.256 3.008 0 5.728-.544 8.16-1.632 2.432-1.088 4.096-2.496 4.992-4.224v-4.32zm51.552 11.904c-.704 1.664-2.064 3.072-4.08 4.224-2.016 1.152-4.464 1.728-7.344 1.728-4.224 0-7.504-1.28-9.84-3.84-2.336-2.56-3.504-6.592-3.504-12.096v-24.864h-8.64v-2.304l13.344-17.088h2.304v11.904h17.472v7.488h-17.376v23.616c0 3.264.672 5.6 2.016 7.008 1.344 1.408 3.296 2.112 5.856 2.112 1.984 0 3.616-.416 4.896-1.248 1.28-.832 2.368-1.76 3.264-2.784l1.632 6.144zm12.672-42.336h7.104V335h-7.104v-47.232zm-2.112-15.648c0-1.6.544-2.944 1.632-4.032 1.088-1.088 2.432-1.632 4.032-1.632s2.944.544 4.032 1.632c1.088 1.088 1.632 2.432 1.632 4.032s-.544 2.944-1.632 4.032c-1.088 1.088-2.432 1.632-4.032 1.632s-2.944-.544-4.032-1.632c-1.088-1.088-1.632-2.432-1.632-4.032zm22.08 39.264c0-3.52.64-6.784 1.92-9.792 1.28-3.008 3.008-5.616 5.184-7.824s4.72-3.936 7.632-5.184a23.034 23.034 0 0 1 9.168-1.872c3.2 0 6.256.624 9.168 1.872 2.912 1.248 5.456 2.976 7.632 5.184 2.176 2.208 3.904 4.816 5.184 7.824 1.28 3.008 1.92 6.272 1.92 9.792 0 3.52-.64 6.784-1.92 9.792-1.28 3.008-3.008 5.616-5.184 7.824s-4.72 3.936-7.632 5.184a23.034 23.034 0 0 1-9.168 1.872c-3.2 0-6.256-.624-9.168-1.872-2.912-1.248-5.456-2.976-7.632-5.184-2.176-2.208-3.904-4.816-5.184-7.824-1.28-3.008-1.92-6.272-1.92-9.792zm23.904-16.992c-2.432 0-4.672.416-6.72 1.248-2.048.832-3.808 2-5.28 3.504-1.472 1.504-2.64 3.296-3.504 5.376-.864 2.08-1.296 4.368-1.296 6.864 0 2.496.432 4.784 1.296 6.864.864 2.08 2.032 3.872 3.504 5.376 1.472 1.504 3.232 2.672 5.28 3.504 2.048.832 4.288 1.248 6.72 1.248 2.368 0 4.592-.416 6.672-1.248 2.08-.832 3.856-2 5.328-3.504 1.472-1.504 2.64-3.296 3.504-5.376.864-2.08 1.296-4.368 1.296-6.864 0-2.496-.432-4.784-1.296-6.864-.864-2.08-2.032-3.872-3.504-5.376-1.472-1.504-3.248-2.672-5.328-3.504-2.08-.832-4.304-1.248-6.672-1.248zm57.504-7.68c2.496 0 4.96.432 7.392 1.296a18.476 18.476 0 0 1 6.48 3.936c1.888 1.76 3.424 3.984 4.608 6.672 1.184 2.688 1.776 5.888 1.776 9.6V335h-7.104v-26.4c0-4.544-1.216-8.048-3.648-10.512-2.432-2.464-5.568-3.696-9.408-3.696-1.6 0-3.152.256-4.656.768-1.504.512-2.88 1.2-4.128 2.064-1.248.864-2.288 1.872-3.12 3.024a9.307 9.307 0 0 0-1.632 3.744V335h-7.104v-47.232h6.912v5.76c.64-1.856 2.208-3.456 4.704-4.8 2.496-1.344 5.472-2.016 8.928-2.016zm35.52 43.008c0-1.728.624-3.216 1.872-4.464 1.248-1.248 2.736-1.872 4.464-1.872 1.728 0 3.216.624 4.464 1.872 1.248 1.248 1.872 2.736 1.872 4.464 0 1.728-.624 3.216-1.872 4.464-1.248 1.248-2.736 1.872-4.464 1.872-1.728 0-3.216-.624-4.464-1.872-1.248-1.248-1.872-2.736-1.872-4.464z" fill="#FFF" fill-rule="evenodd"/></svg>