<?xml version="1.0" encoding="UTF-8"?>
<svg width="92px" height="32px" viewBox="0 0 92 32" version="1.1" xmlns="http://www.w3.org/2000/svg" xmlns:xlink="http://www.w3.org/1999/xlink">
    <g id="Website" stroke="none" stroke-width="1" fill="none" fill-rule="evenodd">
        <g id="Greed-website-·-Desktop-·-Placeholder" transform="translate(-64.000000, -32.000000)" fill="#F5481D">
            <g id="Logo" transform="translate(64.000000, 32.000000)">
                <path d="M0,15.6981132 C0,14.4011116 0.235291765,13.2215287 0.705882353,12.1593291 C1.17647294,11.0971296 1.80391765,10.1802974 2.58823529,9.40880503 C3.37255294,8.6373127 4.29131126,8.0391356 5.34453782,7.61425577 C6.39776437,7.18937593 7.51820134,6.9769392 8.70588235,6.9769392 C9.98319966,6.9769392 11.0980345,7.18937593 12.0504202,7.61425577 C13.0028059,8.0391356 13.613444,8.56463698 13.8823529,9.19077568 L13.8823529,7.4129979 L17.4117647,7.4129979 L17.4117647,24.4528302 C17.4117647,25.5932971 17.2156882,26.6275286 16.8235294,27.5555556 C16.4313706,28.4835826 15.8767543,29.2774251 15.1596639,29.9371069 C14.4425734,30.5967888 13.5742348,31.1055188 12.5546218,31.4633124 C11.5350089,31.8211059 10.3977654,32 9.14285714,32 C8.31372134,32 7.52381328,31.9161434 6.77310924,31.7484277 C6.02240521,31.5807119 5.32773429,31.3459135 4.68907563,31.0440252 C4.05041697,30.7421369 3.4845963,30.3899391 2.99159664,29.9874214 C2.49859697,29.5849036 2.10644403,29.1488493 1.81512605,28.6792453 L2.8907563,25.3584906 C3.51821042,26.1411639 4.34733378,26.7952455 5.37815126,27.3207547 C6.40896874,27.846264 7.52940571,28.1090147 8.7394958,28.1090147 C9.29972269,28.1090147 9.87114555,28.0475198 10.4537815,27.9245283 C11.0364175,27.8015368 11.5742272,27.5779192 12.0672269,27.2536688 C12.5602266,26.9294184 12.9635839,26.4765927 13.2773109,25.8951782 C13.591038,25.3137637 13.7478992,24.5534638 13.7478992,23.6142558 L13.7478992,22.1383648 C13.4565812,22.7645035 12.8515452,23.2955953 11.9327731,23.7316562 C11.014001,24.1677171 9.9047684,24.3857442 8.60504202,24.3857442 C7.46217916,24.3857442 6.36975311,24.1733075 5.32773109,23.7484277 C4.28570908,23.3235478 3.36695076,22.7253707 2.57142857,21.9538784 C1.77590639,21.1823861 1.14846168,20.2655539 0.68907563,19.2033543 C0.22968958,18.1411547 0,16.9727527 0,15.6981132 Z M3.66386555,15.6645702 C3.66386555,17.1404686 4.15125563,18.314461 5.12605042,19.1865828 C6.10084521,20.0587046 7.39494992,20.4947589 9.00840336,20.4947589 C10.1288571,20.4947589 11.1260461,20.2599604 12,19.7903564 C12.8739539,19.3207524 13.4565812,18.7393466 13.7478992,18.0461216 L13.7478992,13.3501048 C13.4565812,12.6345177 12.8739539,12.0419311 12,11.572327 C11.1260461,11.102723 10.1288571,10.8679245 9.00840336,10.8679245 C7.39494992,10.8679245 6.10084521,11.2983884 5.12605042,12.1593291 C4.15125563,13.0202699 3.66386555,14.1886719 3.66386555,15.6645702 Z M32.3697479,11.639413 C32.100839,11.4381541 31.7703101,11.25926 31.3781513,11.1027254 C30.9859924,10.9461907 30.5434198,10.8679245 30.0504202,10.8679245 C29.5126024,10.8679245 29.0308145,10.9573716 28.605042,11.1362683 C28.1792696,11.3151651 27.8151276,11.5499636 27.512605,11.8406709 C27.2100825,12.1313781 26.9635864,12.4612141 26.7731092,12.8301887 C26.5826321,13.1991633 26.4537818,13.5625419 26.3865546,13.9203354 L26.3865546,24.4192872 L22.7226891,24.4192872 L22.7226891,7.4129979 L26.2521008,7.4129979 L26.2521008,9.66037736 C26.5210097,8.83297979 26.9803889,8.17889828 27.6302521,7.69811321 C28.2801153,7.21732813 29.1092387,6.9769392 30.1176471,6.9769392 C30.7675103,6.9769392 31.3389331,7.10551933 31.8319328,7.36268344 C32.3249324,7.61984755 32.6834723,7.93850264 32.907563,8.31865828 L32.3697479,11.639413 Z M44.302521,21.0985325 C45.3781566,21.0985325 46.4033565,20.8805053 47.3781513,20.4444444 C48.3529461,20.0083836 49.0756279,19.4884726 49.5462185,18.884696 L50.6218487,21.7358491 C50.397758,22.1383668 50.0840356,22.5296976 49.6806723,22.9098532 C49.2773089,23.2900089 48.795521,23.6254353 48.2352941,23.9161426 C47.6750672,24.2068498 47.0532247,24.4360579 46.3697479,24.6037736 C45.6862711,24.7714893 44.9523849,24.8553459 44.1680672,24.8553459 C42.8907499,24.8553459 41.7030867,24.6484996 40.605042,24.2348008 C39.5069973,23.8211021 38.5546259,23.2285154 37.7478992,22.4570231 C36.9411724,21.6855307 36.3137277,20.7463368 35.8655462,19.639413 C35.4173647,18.5324892 35.1932773,17.2970019 35.1932773,15.932914 C35.1932773,14.7253608 35.3893538,13.584911 35.7815126,12.5115304 C36.1736714,11.4381498 36.7394921,10.4877749 37.4789916,9.66037736 C38.2184911,8.83297979 39.1148407,8.17889828 40.1680672,7.69811321 C41.2212938,7.21732813 42.408957,6.9769392 43.7310924,6.9769392 C44.9635916,6.9769392 46.0840286,7.21732813 47.092437,7.69811321 C48.1008454,8.17889828 48.9579797,8.82738935 49.6638655,9.64360587 C50.3697514,10.4598224 50.9131634,11.4101972 51.2941176,12.4947589 C51.6750719,13.5793206 51.8655462,14.71418 51.8655462,15.8993711 C51.8655462,16.3913372 51.8319331,16.8385724 51.7647059,17.2410901 L38.9243697,17.2410901 C39.1036424,18.5604538 39.6750652,19.5331904 40.6386555,20.1593291 C41.6022457,20.7854678 42.823522,21.0985325 44.302521,21.0985325 Z M48.0336134,13.9538784 C47.9215681,12.9923083 47.4565867,12.2208275 46.6386555,11.639413 C45.8207242,11.0579985 44.8515462,10.7672956 43.7310924,10.7672956 C43.1484565,10.7672956 42.5994424,10.8455618 42.0840336,11.0020964 C41.5686249,11.1586311 41.1036435,11.3766583 40.6890756,11.6561845 C40.2745077,11.9357107 39.9271723,12.2711371 39.6470588,12.6624738 C39.3669454,13.0538105 39.1820733,13.4842744 39.092437,13.9538784 L48.0336134,13.9538784 Z M64,21.0985325 C65.0756356,21.0985325 66.1008355,20.8805053 67.0756303,20.4444444 C68.050425,20.0083836 68.7731069,19.4884726 69.2436975,18.884696 L70.3193277,21.7358491 C70.095237,22.1383668 69.7815146,22.5296976 69.3781513,22.9098532 C68.9747879,23.2900089 68.493,23.6254353 67.9327731,23.9161426 C67.3725462,24.2068498 66.7507037,24.4360579 66.0672269,24.6037736 C65.3837501,24.7714893 64.6498639,24.8553459 63.8655462,24.8553459 C62.5882289,24.8553459 61.4005657,24.6484996 60.302521,24.2348008 C59.2044763,23.8211021 58.2521049,23.2285154 57.4453782,22.4570231 C56.6386514,21.6855307 56.0112067,20.7463368 55.5630252,19.639413 C55.1148437,18.5324892 54.8907563,17.2970019 54.8907563,15.932914 C54.8907563,14.7253608 55.0868328,13.584911 55.4789916,12.5115304 C55.8711504,11.4381498 56.4369711,10.4877749 57.1764706,9.66037736 C57.9159701,8.83297979 58.8123197,8.17889828 59.8655462,7.69811321 C60.9187728,7.21732813 62.106436,6.9769392 63.4285714,6.9769392 C64.6610706,6.9769392 65.7815076,7.21732813 66.789916,7.69811321 C67.7983244,8.17889828 68.6554587,8.82738935 69.3613445,9.64360587 C70.0672304,10.4598224 70.6106424,11.4101972 70.9915966,12.4947589 C71.3725509,13.5793206 71.5630252,14.71418 71.5630252,15.8993711 C71.5630252,16.3913372 71.5294121,16.8385724 71.4621849,17.2410901 L58.6218487,17.2410901 C58.8011213,18.5604538 59.3725442,19.5331904 60.3361345,20.1593291 C61.2997247,20.7854678 62.521001,21.0985325 64,21.0985325 Z M67.7310924,13.9538784 C67.6190471,12.9923083 67.1540657,12.2208275 66.3361345,11.639413 C65.5182032,11.0579985 64.5490252,10.7672956 63.4285714,10.7672956 C62.8459355,10.7672956 62.2969213,10.8455618 61.7815126,11.0020964 C61.2661039,11.1586311 60.8011225,11.3766583 60.3865546,11.6561845 C59.9719867,11.9357107 59.6246513,12.2711371 59.3445378,12.6624738 C59.0644244,13.0538105 58.8795523,13.4842744 58.789916,13.9538784 L67.7310924,13.9538784 Z M74.5882353,15.932914 C74.5882353,14.6135504 74.8235271,13.4060153 75.2941176,12.3102725 C75.7647082,11.2145298 76.3977551,10.2697454 77.1932773,9.47589099 C77.9887995,8.68203656 78.91316,8.06708813 79.9663866,7.63102725 C81.0196131,7.19496637 82.1176413,6.9769392 83.2605042,6.9769392 C84.5378215,6.9769392 85.6302476,7.18937593 86.5378151,7.61425577 C87.4453827,8.0391356 88.0448165,8.57581786 88.3361345,9.22431866 L88.3361345,0 L92,0 L92,24.4192872 L88.4705882,24.4192872 L88.4705882,22.6415094 C88.2016793,23.2676481 87.5966434,23.7931495 86.6554622,24.2180294 C85.714281,24.6429092 84.6050484,24.8553459 83.3277311,24.8553459 C82.1624592,24.8553459 81.0532266,24.6373187 80,24.2012579 C78.9467734,23.765197 78.0168108,23.155839 77.210084,22.3731656 C76.4033573,21.5904922 75.7647082,20.6512983 75.2941176,19.5555556 C74.8235271,18.4598128 74.5882353,17.2522777 74.5882353,15.932914 Z M78.2521008,15.966457 C78.2521008,17.4870796 78.7394909,18.7002051 79.7142857,19.60587 C80.6890805,20.5115349 81.9831852,20.9643606 83.5966387,20.9643606 C84.7170924,20.9643606 85.7142813,20.7239717 86.5882353,20.2431866 C87.4621892,19.7624015 88.0448165,19.1642244 88.3361345,18.4486373 L88.3361345,13.4171908 C88.0448165,12.6792416 87.4621892,12.0698836 86.5882353,11.5890985 C85.7142813,11.1083135 84.7170924,10.8679245 83.5966387,10.8679245 C81.9831852,10.8679245 80.6890805,11.3319311 79.7142857,12.2599581 C78.7394909,13.1879851 78.2521008,14.4234724 78.2521008,15.966457 Z" id="greed"></path>
            </g>
        </g>
    </g>
</svg>
