<?xml version="1.0" encoding="UTF-8"?>
<svg width="1248px" height="360px" viewBox="0 0 1248 360" version="1.1" xmlns="http://www.w3.org/2000/svg" xmlns:xlink="http://www.w3.org/1999/xlink">
    <!-- Generator: Sketch 47.1 (45422) - http://www.bohemiancoding.com/sketch -->
    <title>From the first day t</title>
    <desc>Created with Sketch.</desc>
    <defs></defs>
    <g id="Website" stroke="none" stroke-width="1" fill="none" fill-rule="evenodd">
        <g id="Greed-website-·-Desktop-·-Placeholder" transform="translate(-64.000000, -240.000000)" fill="#FFFFFF">
            <path d="M72.832,266.072 L106.816,266.072 L106.816,274.04 L80.32,274.04 L80.32,295.544 L104.896,295.544 L104.896,303.512 L80.32,303.512 L80.32,335 L72.832,335 L72.832,266.072 Z M144.64,296.504 C143.039992,295.095993 140.768015,294.392 137.824,294.392 C134.943986,294.392 132.54401,295.38399 130.624,297.368 C128.70399,299.35201 127.456003,301.719986 126.88,304.472 L126.88,335 L119.776,335 L119.776,287.768 L126.688,287.768 L126.688,293.72 C127.392004,291.73599 128.623991,290.072007 130.384,288.728 C132.144009,287.383993 134.559985,286.712 137.632,286.712 C139.424009,286.712 141.055993,287.015997 142.528,287.624 C144.000007,288.232003 145.087996,289.079995 145.792,290.168 L144.64,296.504 Z M153.376,311.384 C153.376,307.863982 154.015994,304.600015 155.296,301.592 C156.576006,298.583985 158.303989,295.976011 160.48,293.768 C162.656011,291.559989 165.199985,289.832006 168.112,288.584 C171.024015,287.335994 174.079984,286.712 177.28,286.712 C180.480016,286.712 183.535985,287.335994 186.448,288.584 C189.360015,289.832006 191.903989,291.559989 194.08,293.768 C196.256011,295.976011 197.983994,298.583985 199.264,301.592 C200.544006,304.600015 201.184,307.863982 201.184,311.384 C201.184,314.904018 200.544006,318.167985 199.264,321.176 C197.983994,324.184015 196.256011,326.791989 194.08,329 C191.903989,331.208011 189.360015,332.935994 186.448,334.184 C183.535985,335.432006 180.480016,336.056 177.28,336.056 C174.079984,336.056 171.024015,335.432006 168.112,334.184 C165.199985,332.935994 162.656011,331.208011 160.48,329 C158.303989,326.791989 156.576006,324.184015 155.296,321.176 C154.015994,318.167985 153.376,314.904018 153.376,311.384 Z M177.28,294.392 C174.847988,294.392 172.60801,294.807996 170.56,295.64 C168.51199,296.472004 166.752007,297.639992 165.28,299.144 C163.807993,300.648008 162.640004,302.43999 161.776,304.52 C160.911996,306.60001 160.48,308.887988 160.48,311.384 C160.48,313.880012 160.911996,316.16799 161.776,318.248 C162.640004,320.32801 163.807993,322.119992 165.28,323.624 C166.752007,325.128008 168.51199,326.295996 170.56,327.128 C172.60801,327.960004 174.847988,328.376 177.28,328.376 C179.648012,328.376 181.87199,327.960004 183.952,327.128 C186.03201,326.295996 187.807993,325.128008 189.28,323.624 C190.752007,322.119992 191.919996,320.32801 192.784,318.248 C193.648004,316.16799 194.08,313.880012 194.08,311.384 C194.08,308.887988 193.648004,306.60001 192.784,304.52 C191.919996,302.43999 190.752007,300.648008 189.28,299.144 C187.807993,297.639992 186.03201,296.472004 183.952,295.64 C181.87199,294.807996 179.648012,294.392 177.28,294.392 Z M267.136,286.712 C269.504012,286.712 271.871988,287.127996 274.24,287.96 C276.608012,288.792004 278.719991,290.055992 280.576,291.752 C282.432009,293.448008 283.935994,295.607987 285.088,298.232 C286.240006,300.856013 286.816,303.959982 286.816,307.544 L286.816,335 L279.712,335 L279.712,308.024 C279.712,303.607978 278.528012,300.232012 276.16,297.896 C273.791988,295.559988 270.784018,294.392 267.136,294.392 C265.599992,294.392 264.096007,294.631998 262.624,295.112 C261.151993,295.592002 259.824006,296.263996 258.64,297.128 C257.455994,297.992004 256.464004,298.999994 255.664,300.152 C254.863996,301.304006 254.336001,302.583993 254.08,303.992 L254.08,335 L246.976,335 L246.976,308.024 C246.976,303.607978 245.792012,300.232012 243.424,297.896 C241.055988,295.559988 238.048018,294.392 234.4,294.392 C232.863992,294.392 231.360007,294.631998 229.888,295.112 C228.415993,295.592002 227.088006,296.263996 225.904,297.128 C224.719994,297.992004 223.728004,298.999994 222.928,300.152 C222.127996,301.304006 221.600001,302.583993 221.344,303.992 L221.344,335 L214.24,335 L214.24,287.768 L221.152,287.768 L221.152,293.528 C221.792003,291.671991 223.311988,290.072007 225.712,288.728 C228.112012,287.383993 231.007983,286.712 234.4,286.712 C237.472015,286.712 240.479985,287.415993 243.424,288.824 C246.368015,290.232007 248.767991,292.311986 250.624,295.064 C252.032007,292.823989 254.175986,290.872008 257.056,289.208 C259.936014,287.543992 263.295981,286.712 267.136,286.712 Z M356.896,330.104 C356.191996,331.768008 354.83201,333.175994 352.816,334.328 C350.79999,335.480006 348.352014,336.056 345.472,336.056 C341.247979,336.056 337.968012,334.776013 335.632,332.216 C333.295988,329.655987 332.128,325.624028 332.128,320.12 L332.128,295.256 L323.488,295.256 L323.488,292.952 L336.832,275.864 L339.136,275.864 L339.136,287.768 L356.608,287.768 L356.608,295.256 L339.232,295.256 L339.232,318.872 C339.232,322.136016 339.903993,324.471993 341.248,325.88 C342.592007,327.288007 344.543987,327.992 347.104,327.992 C349.08801,327.992 350.719994,327.576004 352,326.744 C353.280006,325.911996 354.367996,324.984005 355.264,323.96 L356.896,330.104 Z M376.864,335 L369.76,335 L369.76,265.112 L376.864,265.112 L376.864,293.528 C377.504003,291.671991 379.007988,290.072007 381.376,288.728 C383.744012,287.383993 386.719982,286.712 390.304,286.712 C392.800012,286.712 395.247988,287.127996 397.648,287.96 C400.048012,288.792004 402.20799,290.087991 404.128,291.848 C406.04801,293.608009 407.599994,295.831987 408.784,298.52 C409.968006,301.208013 410.56,304.407981 410.56,308.12 L410.56,335 L403.456,335 L403.456,308.408 C403.456,303.863977 402.224012,300.392012 399.76,297.992 C397.295988,295.591988 394.176019,294.392 390.4,294.392 C388.799992,294.392 387.248008,294.631998 385.744,295.112 C384.239992,295.592002 382.864006,296.263996 381.616,297.128 C380.367994,297.992004 379.328004,298.999994 378.496,300.152 C377.663996,301.304006 377.120001,302.583993 376.864,303.992 L376.864,335 Z M467.872,310.52 C467.872,311.544005 467.776001,312.631994 467.584,313.784 L430.048,313.784 C430.560003,318.712025 432.415984,322.311989 435.616,324.584 C438.816016,326.856011 442.687977,327.992 447.232,327.992 C450.688017,327.992 453.647988,327.480005 456.112,326.456 C458.576012,325.431995 460.76799,323.89601 462.688,321.848 L464.032,328.088 C463.519997,329.176005 462.736005,330.199995 461.68,331.16 C460.623995,332.120005 459.344008,332.951996 457.84,333.656 C456.335992,334.360004 454.672009,334.935998 452.848,335.384 C451.023991,335.832002 449.12001,336.056 447.136,336.056 C443.743983,336.056 440.560015,335.496006 437.584,334.376 C434.607985,333.255994 432.032011,331.640011 429.856,329.528 C427.679989,327.415989 425.968006,324.824015 424.72,321.752 C423.471994,318.679985 422.848,315.224019 422.848,311.384 C422.848,307.927983 423.391995,304.712015 424.48,301.736 C425.568005,298.759985 427.11999,296.152011 429.136,293.912 C431.15201,291.671989 433.567986,289.912006 436.384,288.632 C439.200014,287.351994 442.367982,286.712 445.888,286.712 C449.152016,286.712 452.143986,287.335994 454.864,288.584 C457.584014,289.832006 459.90399,291.543989 461.824,293.72 C463.74401,295.896011 465.231995,298.423986 466.288,301.304 C467.344005,304.184014 467.872,307.255984 467.872,310.52 Z M445.888,294.392 C444.159991,294.392 442.464008,294.631998 440.8,295.112 C439.135992,295.592002 437.600007,296.327995 436.192,297.32 C434.783993,298.312005 433.584005,299.559992 432.592,301.064 C431.599995,302.568008 430.912002,304.34399 430.528,306.392 L460.288,306.392 C459.775997,302.679981 458.208013,299.752011 455.584,297.608 C452.959987,295.463989 449.728019,294.392 445.888,294.392 Z M535.264,275.768 C534.431996,274.743995 533.264008,273.816004 531.76,272.984 C530.255992,272.151996 528.576009,271.736 526.72,271.736 C524.351988,271.736 522.384008,272.503992 520.816,274.04 C519.247992,275.576008 518.464,277.783986 518.464,280.664 L518.464,287.768 L535.456,287.768 L535.456,295.448 L518.464,295.448 L518.464,335 L511.36,335 L511.36,295.448 L502.336,295.448 L502.336,287.768 L511.36,287.768 L511.36,279.608 C511.36,274.615975 512.591988,270.776013 515.056,268.088 C517.520012,265.399987 521.151976,264.056 525.952,264.056 C528.128011,264.056 530.19199,264.551995 532.144,265.544 C534.09601,266.536005 535.487996,267.863992 536.32,269.528 L535.264,275.768 Z M547.072,287.768 L554.176,287.768 L554.176,335 L547.072,335 L547.072,287.768 Z M544.96,272.12 C544.96,270.519992 545.503995,269.176005 546.592,268.088 C547.680005,266.999995 549.023992,266.456 550.624,266.456 C552.224008,266.456 553.567995,266.999995 554.656,268.088 C555.744005,269.176005 556.288,270.519992 556.288,272.12 C556.288,273.720008 555.744005,275.063995 554.656,276.152 C553.567995,277.240005 552.224008,277.784 550.624,277.784 C549.023992,277.784 547.680005,277.240005 546.592,276.152 C545.503995,275.063995 544.96,273.720008 544.96,272.12 Z M595.168,296.504 C593.567992,295.095993 591.296015,294.392 588.352,294.392 C585.471986,294.392 583.07201,295.38399 581.152,297.368 C579.23199,299.35201 577.984003,301.719986 577.408,304.472 L577.408,335 L570.304,335 L570.304,287.768 L577.216,287.768 L577.216,293.72 C577.920004,291.73599 579.151991,290.072007 580.912,288.728 C582.672009,287.383993 585.087985,286.712 588.16,286.712 C589.952009,286.712 591.583993,287.015997 593.056,287.624 C594.528007,288.232003 595.615996,289.079995 596.32,290.168 L595.168,296.504 Z M613.888,311.96 C610.815985,310.359992 608.496008,308.456011 606.928,306.248 C605.359992,304.039989 604.576,301.688012 604.576,299.192 C604.576,295.543982 605.759988,292.552012 608.128,290.216 C610.496012,287.879988 614.015977,286.712 618.688,286.712 C620.288008,286.712 621.807993,286.935998 623.248,287.384 C624.688007,287.832002 625.983994,288.391997 627.136,289.064 C628.288006,289.736003 629.263996,290.471996 630.064,291.272 C630.864004,292.072004 631.455998,292.855996 631.84,293.624 L630.496,300.056 C628.831992,298.327991 626.99201,296.952005 624.976,295.928 C622.95999,294.903995 620.768012,294.392 618.4,294.392 C616.735992,294.392 615.200007,294.743996 613.792,295.448 C612.383993,296.152004 611.68,297.367991 611.68,299.096 C611.68,300.568007 612.287994,301.751996 613.504,302.648 C614.720006,303.544004 616.127992,304.439996 617.728,305.336 L623.488,308.504 C627.072018,310.42401 629.743991,312.42399 631.504,314.504 C633.264009,316.58401 634.144,319.191984 634.144,322.328 C634.144,324.37601 633.760004,326.231992 632.992,327.896 C632.223996,329.560008 631.152007,330.999994 629.776,332.216 C628.399993,333.432006 626.72001,334.375997 624.736,335.048 C622.75199,335.720003 620.512012,336.056 618.016,336.056 C616.287991,336.056 614.640008,335.832002 613.072,335.384 C611.503992,334.935998 610.064007,334.344004 608.752,333.608 C607.439993,332.871996 606.304005,332.024005 605.344,331.064 C604.383995,330.103995 603.648003,329.112005 603.136,328.088 L604.672,321.56 C606.59201,323.800011 608.735988,325.431995 611.104,326.456 C613.472012,327.480005 615.999987,327.992 618.688,327.992 C619.648005,327.992 620.623995,327.912001 621.616,327.752 C622.608005,327.591999 623.503996,327.288002 624.304,326.84 C625.104004,326.391998 625.759997,325.832003 626.272,325.16 C626.784003,324.487997 627.04,323.608005 627.04,322.52 C627.04,320.983992 626.320007,319.624006 624.88,318.44 C623.439993,317.255994 621.600011,316.088006 619.36,314.936 L613.888,311.96 Z M675.712,330.104 C675.007996,331.768008 673.64801,333.175994 671.632,334.328 C669.61599,335.480006 667.168014,336.056 664.288,336.056 C660.063979,336.056 656.784012,334.776013 654.448,332.216 C652.111988,329.655987 650.944,325.624028 650.944,320.12 L650.944,295.256 L642.304,295.256 L642.304,292.952 L655.648,275.864 L657.952,275.864 L657.952,287.768 L675.424,287.768 L675.424,295.256 L658.048,295.256 L658.048,318.872 C658.048,322.136016 658.719993,324.471993 660.064,325.88 C661.408007,327.288007 663.359987,327.992 665.92,327.992 C667.90401,327.992 669.535994,327.576004 670.816,326.744 C672.096006,325.911996 673.183996,324.984005 674.08,323.96 L675.712,330.104 Z M757.6,265.112 L757.6,335 L750.688,335 L750.688,329.336 C750.303998,330.232004 749.648005,331.079996 748.72,331.88 C747.791995,332.680004 746.640007,333.383997 745.264,333.992 C743.887993,334.600003 742.352008,335.095998 740.656,335.48 C738.959992,335.864002 737.15201,336.056 735.232,336.056 C732.031984,336.056 728.992014,335.448006 726.112,334.232 C723.231986,333.015994 720.688011,331.320011 718.48,329.144 C716.271989,326.967989 714.512007,324.376015 713.2,321.368 C711.887993,318.359985 711.232,315.032018 711.232,311.384 C711.232,307.735982 711.887993,304.408015 713.2,301.4 C714.512007,298.391985 716.271989,295.800011 718.48,293.624 C720.688011,291.447989 723.231986,289.752006 726.112,288.536 C728.992014,287.319994 732.031984,286.712 735.232,286.712 C739.072019,286.712 742.383986,287.399993 745.168,288.776 C747.952014,290.152007 749.727996,291.703991 750.496,293.432 L750.496,265.112 L757.6,265.112 Z M718.336,311.384 C718.336,314.008013 718.767996,316.35999 719.632,318.44 C720.496004,320.52001 721.679992,322.295993 723.184,323.768 C724.688008,325.240007 726.495989,326.375996 728.608,327.176 C730.720011,327.976004 733.023988,328.376 735.52,328.376 C739.168018,328.376 742.383986,327.592008 745.168,326.024 C747.952014,324.455992 749.727996,322.232014 750.496,319.352 L750.496,303.416 C749.727996,300.535986 747.952014,298.312008 745.168,296.744 C742.383986,295.175992 739.168018,294.392 735.52,294.392 C733.023988,294.392 730.720011,294.791996 728.608,295.592 C726.495989,296.392004 724.688008,297.527993 723.184,299 C721.679992,300.472007 720.496004,302.24799 719.632,304.328 C718.767996,306.40801 718.336,308.759987 718.336,311.384 Z M790.144,286.712 C793.024014,286.712 795.695988,287.111996 798.16,287.912 C800.624012,288.712004 802.735991,289.879992 804.496,291.416 C806.256009,292.952008 807.647995,294.871988 808.672,297.176 C809.696005,299.480012 810.208,302.103985 810.208,305.048 L810.208,335 L803.296,335 L803.296,330.488 C802.079994,332.152008 800.192013,333.495995 797.632,334.52 C795.071987,335.544005 792.288015,336.056 789.28,336.056 C783.391971,336.056 778.784017,334.680014 775.456,331.928 C772.127983,329.175986 770.464,325.400024 770.464,320.6 C770.464,318.295988 770.943995,316.216009 771.904,314.36 C772.864005,312.503991 774.191992,310.920007 775.888,309.608 C777.584008,308.295993 779.583988,307.304003 781.888,306.632 C784.192012,305.959997 786.687987,305.624 789.376,305.624 C790.272004,305.624 791.311994,305.687999 792.496,305.816 C793.680006,305.944001 794.911994,306.183998 796.192,306.536 C797.472006,306.888002 798.719994,307.335997 799.936,307.88 C801.152006,308.424003 802.207996,309.111996 803.104,309.944 L803.104,306.968 C803.104,302.615978 801.808013,299.43201 799.216,297.416 C796.623987,295.39999 793.408019,294.392 789.568,294.392 C786.559985,294.392 783.776013,294.999994 781.216,296.216 C778.655987,297.432006 776.672007,298.967991 775.264,300.824 L773.344,294.488 C773.984003,293.399995 774.879994,292.392005 776.032,291.464 C777.184006,290.535995 778.495993,289.720004 779.968,289.016 C781.440007,288.311996 783.039991,287.752002 784.768,287.336 C786.496009,286.919998 788.287991,286.712 790.144,286.712 Z M803.104,318.2 C802.207996,316.535992 800.528012,315.304004 798.064,314.504 C795.599988,313.703996 792.896015,313.304 789.952,313.304 C786.111981,313.304 783.088011,313.959993 780.88,315.272 C778.671989,316.584007 777.568,318.359989 777.568,320.6 C777.568,322.776011 778.60799,324.615992 780.688,326.12 C782.76801,327.624008 785.85598,328.376 789.952,328.376 C792.960015,328.376 795.679988,327.832005 798.112,326.744 C800.544012,325.655995 802.207996,324.248009 803.104,322.52 L803.104,318.2 Z M819.616,287.768 L827.776,287.768 L843.52,325.016 L858.688,287.768 L866.848,287.768 L838.72,355.448 L830.56,355.448 L839.488,333.848 L819.616,287.768 Z M931.552,330.104 C930.847996,331.768008 929.48801,333.175994 927.472,334.328 C925.45599,335.480006 923.008014,336.056 920.128,336.056 C915.903979,336.056 912.624012,334.776013 910.288,332.216 C907.951988,329.655987 906.784,325.624028 906.784,320.12 L906.784,295.256 L898.144,295.256 L898.144,292.952 L911.488,275.864 L913.792,275.864 L913.792,287.768 L931.264,287.768 L931.264,295.256 L913.888,295.256 L913.888,318.872 C913.888,322.136016 914.559993,324.471993 915.904,325.88 C917.248007,327.288007 919.199987,327.992 921.76,327.992 C923.74401,327.992 925.375994,327.576004 926.656,326.744 C927.936006,325.911996 929.023996,324.984005 929.92,323.96 L931.552,330.104 Z M941.152,311.384 C941.152,307.863982 941.791994,304.600015 943.072,301.592 C944.352006,298.583985 946.079989,295.976011 948.256,293.768 C950.432011,291.559989 952.975985,289.832006 955.888,288.584 C958.800015,287.335994 961.855984,286.712 965.056,286.712 C968.256016,286.712 971.311985,287.335994 974.224,288.584 C977.136015,289.832006 979.679989,291.559989 981.856,293.768 C984.032011,295.976011 985.759994,298.583985 987.04,301.592 C988.320006,304.600015 988.96,307.863982 988.96,311.384 C988.96,314.904018 988.320006,318.167985 987.04,321.176 C985.759994,324.184015 984.032011,326.791989 981.856,329 C979.679989,331.208011 977.136015,332.935994 974.224,334.184 C971.311985,335.432006 968.256016,336.056 965.056,336.056 C961.855984,336.056 958.800015,335.432006 955.888,334.184 C952.975985,332.935994 950.432011,331.208011 948.256,329 C946.079989,326.791989 944.352006,324.184015 943.072,321.176 C941.791994,318.167985 941.152,314.904018 941.152,311.384 Z M965.056,294.392 C962.623988,294.392 960.38401,294.807996 958.336,295.64 C956.28799,296.472004 954.528007,297.639992 953.056,299.144 C951.583993,300.648008 950.416004,302.43999 949.552,304.52 C948.687996,306.60001 948.256,308.887988 948.256,311.384 C948.256,313.880012 948.687996,316.16799 949.552,318.248 C950.416004,320.32801 951.583993,322.119992 953.056,323.624 C954.528007,325.128008 956.28799,326.295996 958.336,327.128 C960.38401,327.960004 962.623988,328.376 965.056,328.376 C967.424012,328.376 969.64799,327.960004 971.728,327.128 C973.80801,326.295996 975.583993,325.128008 977.056,323.624 C978.528007,322.119992 979.695996,320.32801 980.56,318.248 C981.424004,316.16799 981.856,313.880012 981.856,311.384 C981.856,308.887988 981.424004,306.60001 980.56,304.52 C979.695996,302.43999 978.528007,300.648008 977.056,299.144 C975.583993,297.639992 973.80801,296.472004 971.728,295.64 C969.64799,294.807996 967.424012,294.392 965.056,294.392 Z M1056.544,330.104 C1055.84,331.768008 1054.48001,333.175994 1052.464,334.328 C1050.44799,335.480006 1048.00001,336.056 1045.12,336.056 C1040.89598,336.056 1037.61601,334.776013 1035.28,332.216 C1032.94399,329.655987 1031.776,325.624028 1031.776,320.12 L1031.776,295.256 L1023.136,295.256 L1023.136,292.952 L1036.48,275.864 L1038.784,275.864 L1038.784,287.768 L1056.256,287.768 L1056.256,295.256 L1038.88,295.256 L1038.88,318.872 C1038.88,322.136016 1039.55199,324.471993 1040.896,325.88 C1042.24001,327.288007 1044.19199,327.992 1046.752,327.992 C1048.73601,327.992 1050.36799,327.576004 1051.648,326.744 C1052.92801,325.911996 1054.016,324.984005 1054.912,323.96 L1056.544,330.104 Z M1076.512,335 L1069.408,335 L1069.408,265.112 L1076.512,265.112 L1076.512,293.528 C1077.152,291.671991 1078.65599,290.072007 1081.024,288.728 C1083.39201,287.383993 1086.36798,286.712 1089.952,286.712 C1092.44801,286.712 1094.89599,287.127996 1097.296,287.96 C1099.69601,288.792004 1101.85599,290.087991 1103.776,291.848 C1105.69601,293.608009 1107.24799,295.831987 1108.432,298.52 C1109.61601,301.208013 1110.208,304.407981 1110.208,308.12 L1110.208,335 L1103.104,335 L1103.104,308.408 C1103.104,303.863977 1101.87201,300.392012 1099.408,297.992 C1096.94399,295.591988 1093.82402,294.392 1090.048,294.392 C1088.44799,294.392 1086.89601,294.631998 1085.392,295.112 C1083.88799,295.592002 1082.51201,296.263996 1081.264,297.128 C1080.01599,297.992004 1078.976,298.999994 1078.144,300.152 C1077.312,301.304006 1076.768,302.583993 1076.512,303.992 L1076.512,335 Z M1125.568,287.768 L1132.672,287.768 L1132.672,335 L1125.568,335 L1125.568,287.768 Z M1123.456,272.12 C1123.456,270.519992 1123.99999,269.176005 1125.088,268.088 C1126.17601,266.999995 1127.51999,266.456 1129.12,266.456 C1130.72001,266.456 1132.06399,266.999995 1133.152,268.088 C1134.24001,269.176005 1134.784,270.519992 1134.784,272.12 C1134.784,273.720008 1134.24001,275.063995 1133.152,276.152 C1132.06399,277.240005 1130.72001,277.784 1129.12,277.784 C1127.51999,277.784 1126.17601,277.240005 1125.088,276.152 C1123.99999,275.063995 1123.456,273.720008 1123.456,272.12 Z M1155.52,311.96 C1152.44798,310.359992 1150.12801,308.456011 1148.56,306.248 C1146.99199,304.039989 1146.208,301.688012 1146.208,299.192 C1146.208,295.543982 1147.39199,292.552012 1149.76,290.216 C1152.12801,287.879988 1155.64798,286.712 1160.32,286.712 C1161.92001,286.712 1163.43999,286.935998 1164.88,287.384 C1166.32001,287.832002 1167.61599,288.391997 1168.768,289.064 C1169.92001,289.736003 1170.896,290.471996 1171.696,291.272 C1172.496,292.072004 1173.088,292.855996 1173.472,293.624 L1172.128,300.056 C1170.46399,298.327991 1168.62401,296.952005 1166.608,295.928 C1164.59199,294.903995 1162.40001,294.392 1160.032,294.392 C1158.36799,294.392 1156.83201,294.743996 1155.424,295.448 C1154.01599,296.152004 1153.312,297.367991 1153.312,299.096 C1153.312,300.568007 1153.91999,301.751996 1155.136,302.648 C1156.35201,303.544004 1157.75999,304.439996 1159.36,305.336 L1165.12,308.504 C1168.70402,310.42401 1171.37599,312.42399 1173.136,314.504 C1174.89601,316.58401 1175.776,319.191984 1175.776,322.328 C1175.776,324.37601 1175.392,326.231992 1174.624,327.896 C1173.856,329.560008 1172.78401,330.999994 1171.408,332.216 C1170.03199,333.432006 1168.35201,334.375997 1166.368,335.048 C1164.38399,335.720003 1162.14401,336.056 1159.648,336.056 C1157.91999,336.056 1156.27201,335.832002 1154.704,335.384 C1153.13599,334.935998 1151.69601,334.344004 1150.384,333.608 C1149.07199,332.871996 1147.936,332.024005 1146.976,331.064 C1146.016,330.103995 1145.28,329.112005 1144.768,328.088 L1146.304,321.56 C1148.22401,323.800011 1150.36799,325.431995 1152.736,326.456 C1155.10401,327.480005 1157.63199,327.992 1160.32,327.992 C1161.28,327.992 1162.256,327.912001 1163.248,327.752 C1164.24,327.591999 1165.136,327.288002 1165.936,326.84 C1166.736,326.391998 1167.392,325.832003 1167.904,325.16 C1168.416,324.487997 1168.672,323.608005 1168.672,322.52 C1168.672,320.983992 1167.95201,319.624006 1166.512,318.44 C1165.07199,317.255994 1163.23201,316.088006 1160.992,314.936 L1155.52,311.96 Z M1192.48,335.384 C1191.45599,335.063998 1190.48,334.456004 1189.552,333.56 C1188.624,332.663996 1188.16,331.320009 1188.16,329.528 C1188.16,327.735991 1188.78399,326.264006 1190.032,325.112 C1191.28001,323.959994 1192.76799,323.384 1194.496,323.384 C1196.22401,323.384 1197.71199,323.959994 1198.96,325.112 C1200.20801,326.264006 1200.832,327.767991 1200.832,329.624 C1200.832,331.160008 1200.576,332.503994 1200.064,333.656 C1199.552,334.808006 1198.976,335.927995 1198.336,337.016 L1192.096,348.44 L1186.72,348.44 L1192.48,335.384 Z M78.88,431.96 C75.8079846,430.359992 73.4880078,428.456011 71.92,426.248 C70.3519922,424.039989 69.568,421.688012 69.568,419.192 C69.568,415.543982 70.7519882,412.552012 73.12,410.216 C75.4880118,407.879988 79.0079766,406.712 83.68,406.712 C85.280008,406.712 86.7999928,406.935998 88.24,407.384 C89.6800072,407.832002 90.9759942,408.391997 92.128,409.064 C93.2800058,409.736003 94.255996,410.471996 95.056,411.272 C95.856004,412.072004 96.4479981,412.855996 96.832,413.624 L95.488,420.056 C93.8239917,418.327991 91.9840101,416.952005 89.968,415.928 C87.9519899,414.903995 85.7600118,414.392 83.392,414.392 C81.7279917,414.392 80.192007,414.743996 78.784,415.448 C77.375993,416.152004 76.672,417.367991 76.672,419.096 C76.672,420.568007 77.2799939,421.751996 78.496,422.648 C79.7120061,423.544004 81.119992,424.439996 82.72,425.336 L88.48,428.504 C92.0640179,430.42401 94.7359912,432.42399 96.496,434.504 C98.2560088,436.58401 99.136,439.191984 99.136,442.328 C99.136,444.37601 98.7520038,446.231992 97.984,447.896 C97.2159962,449.560008 96.1440069,450.999994 94.768,452.216 C93.3919931,453.432006 91.7120099,454.375997 89.728,455.048 C87.7439901,455.720003 85.5040125,456.056 83.008,456.056 C81.2799914,456.056 79.6320078,455.832002 78.064,455.384 C76.4959922,454.935998 75.0560066,454.344004 73.744,453.608 C72.4319934,452.871996 71.2960048,452.024005 70.336,451.064 C69.3759952,450.103995 68.6400026,449.112005 68.128,448.088 L69.664,441.56 C71.5840096,443.800011 73.7279882,445.431995 76.096,446.456 C78.4640118,447.480005 80.9919866,447.992 83.68,447.992 C84.6400048,447.992 85.615995,447.912001 86.608,447.752 C87.600005,447.591999 88.495996,447.288002 89.296,446.84 C90.096004,446.391998 90.7519974,445.832003 91.264,445.16 C91.7760026,444.487997 92.032,443.608005 92.032,442.52 C92.032,440.983992 91.3120072,439.624006 89.872,438.44 C88.4319928,437.255994 86.5920112,436.088006 84.352,434.936 L78.88,431.96 Z M119.2,455 L112.096,455 L112.096,385.112 L119.2,385.112 L119.2,413.528 C119.840003,411.671991 121.343988,410.072007 123.712,408.728 C126.080012,407.383993 129.055982,406.712 132.64,406.712 C135.136012,406.712 137.583988,407.127996 139.984,407.96 C142.384012,408.792004 144.54399,410.087991 146.464,411.848 C148.38401,413.608009 149.935994,415.831987 151.12,418.52 C152.304006,421.208013 152.896,424.407981 152.896,428.12 L152.896,455 L145.792,455 L145.792,428.408 C145.792,423.863977 144.560012,420.392012 142.096,417.992 C139.631988,415.591988 136.512019,414.392 132.736,414.392 C131.135992,414.392 129.584008,414.631998 128.08,415.112 C126.575992,415.592002 125.200006,416.263996 123.952,417.128 C122.703994,417.992004 121.664004,418.999994 120.832,420.152 C119.999996,421.304006 119.456001,422.583993 119.2,423.992 L119.2,455 Z M210.208,430.52 C210.208,431.544005 210.112001,432.631994 209.92,433.784 L172.384,433.784 C172.896003,438.712025 174.751984,442.311989 177.952,444.584 C181.152016,446.856011 185.023977,447.992 189.568,447.992 C193.024017,447.992 195.983988,447.480005 198.448,446.456 C200.912012,445.431995 203.10399,443.89601 205.024,441.848 L206.368,448.088 C205.855997,449.176005 205.072005,450.199995 204.016,451.16 C202.959995,452.120005 201.680008,452.951996 200.176,453.656 C198.671992,454.360004 197.008009,454.935998 195.184,455.384 C193.359991,455.832002 191.45601,456.056 189.472,456.056 C186.079983,456.056 182.896015,455.496006 179.92,454.376 C176.943985,453.255994 174.368011,451.640011 172.192,449.528 C170.015989,447.415989 168.304006,444.824015 167.056,441.752 C165.807994,438.679985 165.184,435.224019 165.184,431.384 C165.184,427.927983 165.727995,424.712015 166.816,421.736 C167.904005,418.759985 169.45599,416.152011 171.472,413.912 C173.48801,411.671989 175.903986,409.912006 178.72,408.632 C181.536014,407.351994 184.703982,406.712 188.224,406.712 C191.488016,406.712 194.479986,407.335994 197.2,408.584 C199.920014,409.832006 202.23999,411.543989 204.16,413.72 C206.08001,415.896011 207.567995,418.423986 208.624,421.304 C209.680005,424.184014 210.208,427.255984 210.208,430.52 Z M188.224,414.392 C186.495991,414.392 184.800008,414.631998 183.136,415.112 C181.471992,415.592002 179.936007,416.327995 178.528,417.32 C177.119993,418.312005 175.920005,419.559992 174.928,421.064 C173.935995,422.568008 173.248002,424.34399 172.864,426.392 L202.624,426.392 C202.111997,422.679981 200.544013,419.752011 197.92,417.608 C195.295987,415.463989 192.064019,414.392 188.224,414.392 Z M265.024,430.52 C265.024,431.544005 264.928001,432.631994 264.736,433.784 L227.2,433.784 C227.712003,438.712025 229.567984,442.311989 232.768,444.584 C235.968016,446.856011 239.839977,447.992 244.384,447.992 C247.840017,447.992 250.799988,447.480005 253.264,446.456 C255.728012,445.431995 257.91999,443.89601 259.84,441.848 L261.184,448.088 C260.671997,449.176005 259.888005,450.199995 258.832,451.16 C257.775995,452.120005 256.496008,452.951996 254.992,453.656 C253.487992,454.360004 251.824009,454.935998 250,455.384 C248.175991,455.832002 246.27201,456.056 244.288,456.056 C240.895983,456.056 237.712015,455.496006 234.736,454.376 C231.759985,453.255994 229.184011,451.640011 227.008,449.528 C224.831989,447.415989 223.120006,444.824015 221.872,441.752 C220.623994,438.679985 220,435.224019 220,431.384 C220,427.927983 220.543995,424.712015 221.632,421.736 C222.720005,418.759985 224.27199,416.152011 226.288,413.912 C228.30401,411.671989 230.719986,409.912006 233.536,408.632 C236.352014,407.351994 239.519982,406.712 243.04,406.712 C246.304016,406.712 249.295986,407.335994 252.016,408.584 C254.736014,409.832006 257.05599,411.543989 258.976,413.72 C260.89601,415.896011 262.383995,418.423986 263.44,421.304 C264.496005,424.184014 265.024,427.255984 265.024,430.52 Z M243.04,414.392 C241.311991,414.392 239.616008,414.631998 237.952,415.112 C236.287992,415.592002 234.752007,416.327995 233.344,417.32 C231.935993,418.312005 230.736005,419.559992 229.744,421.064 C228.751995,422.568008 228.064002,424.34399 227.68,426.392 L257.44,426.392 C256.927997,422.679981 255.360013,419.752011 252.736,417.608 C250.111987,415.463989 246.880019,414.392 243.04,414.392 Z M302.944,416.504 C301.343992,415.095993 299.072015,414.392 296.128,414.392 C293.247986,414.392 290.84801,415.38399 288.928,417.368 C287.00799,419.35201 285.760003,421.719986 285.184,424.472 L285.184,455 L278.08,455 L278.08,407.768 L284.992,407.768 L284.992,413.72 C285.696004,411.73599 286.927991,410.072007 288.688,408.728 C290.448009,407.383993 292.863985,406.712 295.936,406.712 C297.728009,406.712 299.359993,407.015997 300.832,407.624 C302.304007,408.232003 303.391996,409.079995 304.096,410.168 L302.944,416.504 Z M383.584,407.768 L383.584,457.112 C383.584,459.992014 383.056005,462.631988 382,465.032 C380.943995,467.432012 379.45601,469.479992 377.536,471.176 C375.61599,472.872008 373.328013,474.183995 370.672,475.112 C368.015987,476.040005 365.120016,476.504 361.984,476.504 C357.95198,476.504 354.128018,475.768007 350.512,474.296 C346.895982,472.823993 344.09601,470.456016 342.112,467.192 L344.128,460.568 C346.17601,463.256013 348.671985,465.287993 351.616,466.664 C354.560015,468.040007 357.727983,468.728 361.12,468.728 C362.912009,468.728 364.719991,468.536002 366.544,468.152 C368.368009,467.767998 370.015993,467.032005 371.488,465.944 C372.960007,464.855995 374.159995,463.33601 375.088,461.384 C376.016005,459.43199 376.48,456.920015 376.48,453.848 L376.48,448.472 C376.095998,449.304004 375.440005,450.119996 374.512,450.92 C373.583995,451.720004 372.464007,452.423997 371.152,453.032 C369.839993,453.640003 368.336008,454.119998 366.64,454.472 C364.943992,454.824002 363.13601,455 361.216,455 C358.015984,455 354.976014,454.408006 352.096,453.224 C349.215986,452.039994 346.672011,450.392011 344.464,448.28 C342.255989,446.167989 340.496007,443.640015 339.184,440.696 C337.871993,437.751985 337.216,434.488018 337.216,430.904 C337.216,427.383982 337.871993,424.136015 339.184,421.16 C340.496007,418.183985 342.255989,415.624011 344.464,413.48 C346.672011,411.335989 349.215986,409.672006 352.096,408.488 C354.976014,407.303994 358.015984,406.712 361.216,406.712 C363.13601,406.712 364.943992,406.887998 366.64,407.24 C368.336008,407.592002 369.871993,408.087997 371.248,408.728 C372.624007,409.368003 373.775995,410.087996 374.704,410.888 C375.632005,411.688004 376.287998,412.503996 376.672,413.336 L376.672,407.768 L383.584,407.768 Z M376.48,423.224 C375.711996,420.407986 373.936014,418.232008 371.152,416.696 C368.367986,415.159992 365.152018,414.392 361.504,414.392 C359.007988,414.392 356.704011,414.775996 354.592,415.544 C352.479989,416.312004 350.672008,417.399993 349.168,418.808 C347.663992,420.216007 346.480004,421.94399 345.616,423.992 C344.751996,426.04001 344.32,428.343987 344.32,430.904 C344.32,433.464013 344.751996,435.76799 345.616,437.816 C346.480004,439.86401 347.663992,441.591993 349.168,443 C350.672008,444.408007 352.479989,445.479996 354.592,446.216 C356.704011,446.952004 359.007988,447.32 361.504,447.32 C365.152018,447.32 368.367986,446.568008 371.152,445.064 C373.936014,443.559992 375.711996,441.400014 376.48,438.584 L376.48,423.224 Z M424.672,416.504 C423.071992,415.095993 420.800015,414.392 417.856,414.392 C414.975986,414.392 412.57601,415.38399 410.656,417.368 C408.73599,419.35201 407.488003,421.719986 406.912,424.472 L406.912,455 L399.808,455 L399.808,407.768 L406.72,407.768 L406.72,413.72 C407.424004,411.73599 408.655991,410.072007 410.416,408.728 C412.176009,407.383993 414.591985,406.712 417.664,406.712 C419.456009,406.712 421.087993,407.015997 422.56,407.624 C424.032007,408.232003 425.119996,409.079995 425.824,410.168 L424.672,416.504 Z M478.432,430.52 C478.432,431.544005 478.336001,432.631994 478.144,433.784 L440.608,433.784 C441.120003,438.712025 442.975984,442.311989 446.176,444.584 C449.376016,446.856011 453.247977,447.992 457.792,447.992 C461.248017,447.992 464.207988,447.480005 466.672,446.456 C469.136012,445.431995 471.32799,443.89601 473.248,441.848 L474.592,448.088 C474.079997,449.176005 473.296005,450.199995 472.24,451.16 C471.183995,452.120005 469.904008,452.951996 468.4,453.656 C466.895992,454.360004 465.232009,454.935998 463.408,455.384 C461.583991,455.832002 459.68001,456.056 457.696,456.056 C454.303983,456.056 451.120015,455.496006 448.144,454.376 C445.167985,453.255994 442.592011,451.640011 440.416,449.528 C438.239989,447.415989 436.528006,444.824015 435.28,441.752 C434.031994,438.679985 433.408,435.224019 433.408,431.384 C433.408,427.927983 433.951995,424.712015 435.04,421.736 C436.128005,418.759985 437.67999,416.152011 439.696,413.912 C441.71201,411.671989 444.127986,409.912006 446.944,408.632 C449.760014,407.351994 452.927982,406.712 456.448,406.712 C459.712016,406.712 462.703986,407.335994 465.424,408.584 C468.144014,409.832006 470.46399,411.543989 472.384,413.72 C474.30401,415.896011 475.791995,418.423986 476.848,421.304 C477.904005,424.184014 478.432,427.255984 478.432,430.52 Z M456.448,414.392 C454.719991,414.392 453.024008,414.631998 451.36,415.112 C449.695992,415.592002 448.160007,416.327995 446.752,417.32 C445.343993,418.312005 444.144005,419.559992 443.152,421.064 C442.159995,422.568008 441.472002,424.34399 441.088,426.392 L470.848,426.392 C470.335997,422.679981 468.768013,419.752011 466.144,417.608 C463.519987,415.463989 460.288019,414.392 456.448,414.392 Z M533.248,430.52 C533.248,431.544005 533.152001,432.631994 532.96,433.784 L495.424,433.784 C495.936003,438.712025 497.791984,442.311989 500.992,444.584 C504.192016,446.856011 508.063977,447.992 512.608,447.992 C516.064017,447.992 519.023988,447.480005 521.488,446.456 C523.952012,445.431995 526.14399,443.89601 528.064,441.848 L529.408,448.088 C528.895997,449.176005 528.112005,450.199995 527.056,451.16 C525.999995,452.120005 524.720008,452.951996 523.216,453.656 C521.711992,454.360004 520.048009,454.935998 518.224,455.384 C516.399991,455.832002 514.49601,456.056 512.512,456.056 C509.119983,456.056 505.936015,455.496006 502.96,454.376 C499.983985,453.255994 497.408011,451.640011 495.232,449.528 C493.055989,447.415989 491.344006,444.824015 490.096,441.752 C488.847994,438.679985 488.224,435.224019 488.224,431.384 C488.224,427.927983 488.767995,424.712015 489.856,421.736 C490.944005,418.759985 492.49599,416.152011 494.512,413.912 C496.52801,411.671989 498.943986,409.912006 501.76,408.632 C504.576014,407.351994 507.743982,406.712 511.264,406.712 C514.528016,406.712 517.519986,407.335994 520.24,408.584 C522.960014,409.832006 525.27999,411.543989 527.2,413.72 C529.12001,415.896011 530.607995,418.423986 531.664,421.304 C532.720005,424.184014 533.248,427.255984 533.248,430.52 Z M511.264,414.392 C509.535991,414.392 507.840008,414.631998 506.176,415.112 C504.511992,415.592002 502.976007,416.327995 501.568,417.32 C500.159993,418.312005 498.960005,419.559992 497.968,421.064 C496.975995,422.568008 496.288002,424.34399 495.904,426.392 L525.664,426.392 C525.151997,422.679981 523.584013,419.752011 520.96,417.608 C518.335987,415.463989 515.104019,414.392 511.264,414.392 Z M589.408,385.112 L589.408,455 L582.496,455 L582.496,449.336 C582.111998,450.232004 581.456005,451.079996 580.528,451.88 C579.599995,452.680004 578.448007,453.383997 577.072,453.992 C575.695993,454.600003 574.160008,455.095998 572.464,455.48 C570.767992,455.864002 568.96001,456.056 567.04,456.056 C563.839984,456.056 560.800014,455.448006 557.92,454.232 C555.039986,453.015994 552.496011,451.320011 550.288,449.144 C548.079989,446.967989 546.320007,444.376015 545.008,441.368 C543.695993,438.359985 543.04,435.032018 543.04,431.384 C543.04,427.735982 543.695993,424.408015 545.008,421.4 C546.320007,418.391985 548.079989,415.800011 550.288,413.624 C552.496011,411.447989 555.039986,409.752006 557.92,408.536 C560.800014,407.319994 563.839984,406.712 567.04,406.712 C570.880019,406.712 574.191986,407.399993 576.976,408.776 C579.760014,410.152007 581.535996,411.703991 582.304,413.432 L582.304,385.112 L589.408,385.112 Z M550.144,431.384 C550.144,434.008013 550.575996,436.35999 551.44,438.44 C552.304004,440.52001 553.487992,442.295993 554.992,443.768 C556.496008,445.240007 558.303989,446.375996 560.416,447.176 C562.528011,447.976004 564.831988,448.376 567.328,448.376 C570.976018,448.376 574.191986,447.592008 576.976,446.024 C579.760014,444.455992 581.535996,442.232014 582.304,439.352 L582.304,423.416 C581.535996,420.535986 579.760014,418.312008 576.976,416.744 C574.191986,415.175992 570.976018,414.392 567.328,414.392 C564.831988,414.392 562.528011,414.791996 560.416,415.592 C558.303989,416.392004 556.496008,417.527993 554.992,419 C553.487992,420.472007 552.304004,422.24799 551.44,424.328 C550.575996,426.40801 550.144,428.759987 550.144,431.384 Z M678.784,444.728 L693.28,407.768 L701.44,407.768 L682.816,455 L675.232,455 L663.328,417.944 L651.712,455 L643.936,455 L625.312,407.768 L633.088,407.768 L647.392,444.824 L659.488,407.768 L667.072,407.768 L678.784,444.728 Z M727.84,406.712 C730.720014,406.712 733.391988,407.111996 735.856,407.912 C738.320012,408.712004 740.431991,409.879992 742.192,411.416 C743.952009,412.952008 745.343995,414.871988 746.368,417.176 C747.392005,419.480012 747.904,422.103985 747.904,425.048 L747.904,455 L740.992,455 L740.992,450.488 C739.775994,452.152008 737.888013,453.495995 735.328,454.52 C732.767987,455.544005 729.984015,456.056 726.976,456.056 C721.087971,456.056 716.480017,454.680014 713.152,451.928 C709.823983,449.175986 708.16,445.400024 708.16,440.6 C708.16,438.295988 708.639995,436.216009 709.6,434.36 C710.560005,432.503991 711.887992,430.920007 713.584,429.608 C715.280008,428.295993 717.279988,427.304003 719.584,426.632 C721.888012,425.959997 724.383987,425.624 727.072,425.624 C727.968004,425.624 729.007994,425.687999 730.192,425.816 C731.376006,425.944001 732.607994,426.183998 733.888,426.536 C735.168006,426.888002 736.415994,427.335997 737.632,427.88 C738.848006,428.424003 739.903996,429.111996 740.8,429.944 L740.8,426.968 C740.8,422.615978 739.504013,419.43201 736.912,417.416 C734.319987,415.39999 731.104019,414.392 727.264,414.392 C724.255985,414.392 721.472013,414.999994 718.912,416.216 C716.351987,417.432006 714.368007,418.967991 712.96,420.824 L711.04,414.488 C711.680003,413.399995 712.575994,412.392005 713.728,411.464 C714.880006,410.535995 716.191993,409.720004 717.664,409.016 C719.136007,408.311996 720.735991,407.752002 722.464,407.336 C724.192009,406.919998 725.983991,406.712 727.84,406.712 Z M740.8,438.2 C739.903996,436.535992 738.224012,435.304004 735.76,434.504 C733.295988,433.703996 730.592015,433.304 727.648,433.304 C723.807981,433.304 720.784011,433.959993 718.576,435.272 C716.367989,436.584007 715.264,438.359989 715.264,440.6 C715.264,442.776011 716.30399,444.615992 718.384,446.12 C720.46401,447.624008 723.55198,448.376 727.648,448.376 C730.656015,448.376 733.375988,447.832005 735.808,446.744 C738.240012,445.655995 739.903996,444.248009 740.8,442.52 L740.8,438.2 Z M770.464,431.96 C767.391985,430.359992 765.072008,428.456011 763.504,426.248 C761.935992,424.039989 761.152,421.688012 761.152,419.192 C761.152,415.543982 762.335988,412.552012 764.704,410.216 C767.072012,407.879988 770.591977,406.712 775.264,406.712 C776.864008,406.712 778.383993,406.935998 779.824,407.384 C781.264007,407.832002 782.559994,408.391997 783.712,409.064 C784.864006,409.736003 785.839996,410.471996 786.64,411.272 C787.440004,412.072004 788.031998,412.855996 788.416,413.624 L787.072,420.056 C785.407992,418.327991 783.56801,416.952005 781.552,415.928 C779.53599,414.903995 777.344012,414.392 774.976,414.392 C773.311992,414.392 771.776007,414.743996 770.368,415.448 C768.959993,416.152004 768.256,417.367991 768.256,419.096 C768.256,420.568007 768.863994,421.751996 770.08,422.648 C771.296006,423.544004 772.703992,424.439996 774.304,425.336 L780.064,428.504 C783.648018,430.42401 786.319991,432.42399 788.08,434.504 C789.840009,436.58401 790.72,439.191984 790.72,442.328 C790.72,444.37601 790.336004,446.231992 789.568,447.896 C788.799996,449.560008 787.728007,450.999994 786.352,452.216 C784.975993,453.432006 783.29601,454.375997 781.312,455.048 C779.32799,455.720003 777.088012,456.056 774.592,456.056 C772.863991,456.056 771.216008,455.832002 769.648,455.384 C768.079992,454.935998 766.640007,454.344004 765.328,453.608 C764.015993,452.871996 762.880005,452.024005 761.92,451.064 C760.959995,450.103995 760.224003,449.112005 759.712,448.088 L761.248,441.56 C763.16801,443.800011 765.311988,445.431995 767.68,446.456 C770.048012,447.480005 772.575987,447.992 775.264,447.992 C776.224005,447.992 777.199995,447.912001 778.192,447.752 C779.184005,447.591999 780.079996,447.288002 780.88,446.84 C781.680004,446.391998 782.335997,445.832003 782.848,445.16 C783.360003,444.487997 783.616,443.608005 783.616,442.52 C783.616,440.983992 782.896007,439.624006 781.456,438.44 C780.015993,437.255994 778.176011,436.088006 775.936,434.936 L770.464,431.96 Z M858.208,450.104 C857.503996,451.768008 856.14401,453.175994 854.128,454.328 C852.11199,455.480006 849.664014,456.056 846.784,456.056 C842.559979,456.056 839.280012,454.776013 836.944,452.216 C834.607988,449.655987 833.44,445.624028 833.44,440.12 L833.44,415.256 L824.8,415.256 L824.8,412.952 L838.144,395.864 L840.448,395.864 L840.448,407.768 L857.92,407.768 L857.92,415.256 L840.544,415.256 L840.544,438.872 C840.544,442.136016 841.215993,444.471993 842.56,445.88 C843.904007,447.288007 845.855987,447.992 848.416,447.992 C850.40001,447.992 852.031994,447.576004 853.312,446.744 C854.592006,445.911996 855.679996,444.984005 856.576,443.96 L858.208,450.104 Z M878.176,455 L871.072,455 L871.072,385.112 L878.176,385.112 L878.176,413.528 C878.816003,411.671991 880.319988,410.072007 882.688,408.728 C885.056012,407.383993 888.031982,406.712 891.616,406.712 C894.112012,406.712 896.559988,407.127996 898.96,407.96 C901.360012,408.792004 903.51999,410.087991 905.44,411.848 C907.36001,413.608009 908.911994,415.831987 910.096,418.52 C911.280006,421.208013 911.872,424.407981 911.872,428.12 L911.872,455 L904.768,455 L904.768,428.408 C904.768,423.863977 903.536012,420.392012 901.072,417.992 C898.607988,415.591988 895.488019,414.392 891.712,414.392 C890.111992,414.392 888.560008,414.631998 887.056,415.112 C885.551992,415.592002 884.176006,416.263996 882.928,417.128 C881.679994,417.992004 880.640004,418.999994 879.808,420.152 C878.975996,421.304006 878.432001,422.583993 878.176,423.992 L878.176,455 Z M969.184,430.52 C969.184,431.544005 969.088001,432.631994 968.896,433.784 L931.36,433.784 C931.872003,438.712025 933.727984,442.311989 936.928,444.584 C940.128016,446.856011 943.999977,447.992 948.544,447.992 C952.000017,447.992 954.959988,447.480005 957.424,446.456 C959.888012,445.431995 962.07999,443.89601 964,441.848 L965.344,448.088 C964.831997,449.176005 964.048005,450.199995 962.992,451.16 C961.935995,452.120005 960.656008,452.951996 959.152,453.656 C957.647992,454.360004 955.984009,454.935998 954.16,455.384 C952.335991,455.832002 950.43201,456.056 948.448,456.056 C945.055983,456.056 941.872015,455.496006 938.896,454.376 C935.919985,453.255994 933.344011,451.640011 931.168,449.528 C928.991989,447.415989 927.280006,444.824015 926.032,441.752 C924.783994,438.679985 924.16,435.224019 924.16,431.384 C924.16,427.927983 924.703995,424.712015 925.792,421.736 C926.880005,418.759985 928.43199,416.152011 930.448,413.912 C932.46401,411.671989 934.879986,409.912006 937.696,408.632 C940.512014,407.351994 943.679982,406.712 947.2,406.712 C950.464016,406.712 953.455986,407.335994 956.176,408.584 C958.896014,409.832006 961.21599,411.543989 963.136,413.72 C965.05601,415.896011 966.543995,418.423986 967.6,421.304 C968.656005,424.184014 969.184,427.255984 969.184,430.52 Z M947.2,414.392 C945.471991,414.392 943.776008,414.631998 942.112,415.112 C940.447992,415.592002 938.912007,416.327995 937.504,417.32 C936.095993,418.312005 934.896005,419.559992 933.904,421.064 C932.911995,422.568008 932.224002,424.34399 931.84,426.392 L961.6,426.392 C961.087997,422.679981 959.520013,419.752011 956.896,417.608 C954.271987,415.463989 951.040019,414.392 947.2,414.392 Z M1051.264,385.112 L1051.264,455 L1044.352,455 L1044.352,449.336 C1043.968,450.232004 1043.312,451.079996 1042.384,451.88 C1041.456,452.680004 1040.30401,453.383997 1038.928,453.992 C1037.55199,454.600003 1036.01601,455.095998 1034.32,455.48 C1032.62399,455.864002 1030.81601,456.056 1028.896,456.056 C1025.69598,456.056 1022.65601,455.448006 1019.776,454.232 C1016.89599,453.015994 1014.35201,451.320011 1012.144,449.144 C1009.93599,446.967989 1008.17601,444.376015 1006.864,441.368 C1005.55199,438.359985 1004.896,435.032018 1004.896,431.384 C1004.896,427.735982 1005.55199,424.408015 1006.864,421.4 C1008.17601,418.391985 1009.93599,415.800011 1012.144,413.624 C1014.35201,411.447989 1016.89599,409.752006 1019.776,408.536 C1022.65601,407.319994 1025.69598,406.712 1028.896,406.712 C1032.73602,406.712 1036.04799,407.399993 1038.832,408.776 C1041.61601,410.152007 1043.392,411.703991 1044.16,413.432 L1044.16,385.112 L1051.264,385.112 Z M1012,431.384 C1012,434.008013 1012.432,436.35999 1013.296,438.44 C1014.16,440.52001 1015.34399,442.295993 1016.848,443.768 C1018.35201,445.240007 1020.15999,446.375996 1022.272,447.176 C1024.38401,447.976004 1026.68799,448.376 1029.184,448.376 C1032.83202,448.376 1036.04799,447.592008 1038.832,446.024 C1041.61601,444.455992 1043.392,442.232014 1044.16,439.352 L1044.16,423.416 C1043.392,420.535986 1041.61601,418.312008 1038.832,416.744 C1036.04799,415.175992 1032.83202,414.392 1029.184,414.392 C1026.68799,414.392 1024.38401,414.791996 1022.272,415.592 C1020.15999,416.392004 1018.35201,417.527993 1016.848,419 C1015.34399,420.472007 1014.16,422.24799 1013.296,424.328 C1012.432,426.40801 1012,428.759987 1012,431.384 Z M1092.352,416.504 C1090.75199,415.095993 1088.48001,414.392 1085.536,414.392 C1082.65599,414.392 1080.25601,415.38399 1078.336,417.368 C1076.41599,419.35201 1075.168,421.719986 1074.592,424.472 L1074.592,455 L1067.488,455 L1067.488,407.768 L1074.4,407.768 L1074.4,413.72 C1075.104,411.73599 1076.33599,410.072007 1078.096,408.728 C1079.85601,407.383993 1082.27198,406.712 1085.344,406.712 C1087.13601,406.712 1088.76799,407.015997 1090.24,407.624 C1091.71201,408.232003 1092.8,409.079995 1093.504,410.168 L1092.352,416.504 Z M1104.16,407.768 L1111.264,407.768 L1111.264,455 L1104.16,455 L1104.16,407.768 Z M1102.048,392.12 C1102.048,390.519992 1102.59199,389.176005 1103.68,388.088 C1104.76801,386.999995 1106.11199,386.456 1107.712,386.456 C1109.31201,386.456 1110.65599,386.999995 1111.744,388.088 C1112.83201,389.176005 1113.376,390.519992 1113.376,392.12 C1113.376,393.720008 1112.83201,395.063995 1111.744,396.152 C1110.65599,397.240005 1109.31201,397.784 1107.712,397.784 C1106.11199,397.784 1104.76801,397.240005 1103.68,396.152 C1102.59199,395.063995 1102.048,393.720008 1102.048,392.12 Z M1139.968,455 L1121.056,407.768 L1129.024,407.768 L1144.192,446.072 L1159.264,407.768 L1167.328,407.768 L1148.32,455 L1139.968,455 Z M1177.312,407.768 L1184.416,407.768 L1184.416,455 L1177.312,455 L1177.312,407.768 Z M1175.2,392.12 C1175.2,390.519992 1175.74399,389.176005 1176.832,388.088 C1177.92001,386.999995 1179.26399,386.456 1180.864,386.456 C1182.46401,386.456 1183.80799,386.999995 1184.896,388.088 C1185.98401,389.176005 1186.528,390.519992 1186.528,392.12 C1186.528,393.720008 1185.98401,395.063995 1184.896,396.152 C1183.80799,397.240005 1182.46401,397.784 1180.864,397.784 C1179.26399,397.784 1177.92001,397.240005 1176.832,396.152 C1175.74399,395.063995 1175.2,393.720008 1175.2,392.12 Z M1221.088,406.712 C1223.58401,406.712 1226.04799,407.143996 1228.48,408.008 C1230.91201,408.872004 1233.07199,410.183991 1234.96,411.944 C1236.84801,413.704009 1238.38399,415.927987 1239.568,418.616 C1240.75201,421.304013 1241.344,424.503981 1241.344,428.216 L1241.344,455 L1234.24,455 L1234.24,428.6 C1234.24,424.055977 1233.02401,420.552012 1230.592,418.088 C1228.15999,415.623988 1225.02402,414.392 1221.184,414.392 C1219.58399,414.392 1218.03201,414.647997 1216.528,415.16 C1215.02399,415.672003 1213.64801,416.359996 1212.4,417.224 C1211.15199,418.088004 1210.112,419.095994 1209.28,420.248 C1208.448,421.400006 1207.904,422.647993 1207.648,423.992 L1207.648,455 L1200.544,455 L1200.544,407.768 L1207.456,407.768 L1207.456,413.528 C1208.096,411.671991 1209.66399,410.072007 1212.16,408.728 C1214.65601,407.383993 1217.63198,406.712 1221.088,406.712 Z M1299.616,407.768 L1299.616,457.112 C1299.616,459.992014 1299.08801,462.631988 1298.032,465.032 C1296.97599,467.432012 1295.48801,469.479992 1293.568,471.176 C1291.64799,472.872008 1289.36001,474.183995 1286.704,475.112 C1284.04799,476.040005 1281.15202,476.504 1278.016,476.504 C1273.98398,476.504 1270.16002,475.768007 1266.544,474.296 C1262.92798,472.823993 1260.12801,470.456016 1258.144,467.192 L1260.16,460.568 C1262.20801,463.256013 1264.70399,465.287993 1267.648,466.664 C1270.59201,468.040007 1273.75998,468.728 1277.152,468.728 C1278.94401,468.728 1280.75199,468.536002 1282.576,468.152 C1284.40001,467.767998 1286.04799,467.032005 1287.52,465.944 C1288.99201,464.855995 1290.192,463.33601 1291.12,461.384 C1292.048,459.43199 1292.512,456.920015 1292.512,453.848 L1292.512,448.472 C1292.128,449.304004 1291.472,450.119996 1290.544,450.92 C1289.616,451.720004 1288.49601,452.423997 1287.184,453.032 C1285.87199,453.640003 1284.36801,454.119998 1282.672,454.472 C1280.97599,454.824002 1279.16801,455 1277.248,455 C1274.04798,455 1271.00801,454.408006 1268.128,453.224 C1265.24799,452.039994 1262.70401,450.392011 1260.496,448.28 C1258.28799,446.167989 1256.52801,443.640015 1255.216,440.696 C1253.90399,437.751985 1253.248,434.488018 1253.248,430.904 C1253.248,427.383982 1253.90399,424.136015 1255.216,421.16 C1256.52801,418.183985 1258.28799,415.624011 1260.496,413.48 C1262.70401,411.335989 1265.24799,409.672006 1268.128,408.488 C1271.00801,407.303994 1274.04798,406.712 1277.248,406.712 C1279.16801,406.712 1280.97599,406.887998 1282.672,407.24 C1284.36801,407.592002 1285.90399,408.087997 1287.28,408.728 C1288.65601,409.368003 1289.808,410.087996 1290.736,410.888 C1291.664,411.688004 1292.32,412.503996 1292.704,413.336 L1292.704,407.768 L1299.616,407.768 Z M1292.512,423.224 C1291.744,420.407986 1289.96801,418.232008 1287.184,416.696 C1284.39999,415.159992 1281.18402,414.392 1277.536,414.392 C1275.03999,414.392 1272.73601,414.775996 1270.624,415.544 C1268.51199,416.312004 1266.70401,417.399993 1265.2,418.808 C1263.69599,420.216007 1262.512,421.94399 1261.648,423.992 C1260.784,426.04001 1260.352,428.343987 1260.352,430.904 C1260.352,433.464013 1260.784,435.76799 1261.648,437.816 C1262.512,439.86401 1263.69599,441.591993 1265.2,443 C1266.70401,444.408007 1268.51199,445.479996 1270.624,446.216 C1272.73601,446.952004 1275.03999,447.32 1277.536,447.32 C1281.18402,447.32 1284.39999,446.568008 1287.184,445.064 C1289.96801,443.559992 1291.744,441.400014 1292.512,438.584 L1292.512,423.224 Z M78.88,551.96 C75.8079846,550.359992 73.4880078,548.456011 71.92,546.248 C70.3519922,544.039989 69.568,541.688012 69.568,539.192 C69.568,535.543982 70.7519882,532.552012 73.12,530.216 C75.4880118,527.879988 79.0079766,526.712 83.68,526.712 C85.280008,526.712 86.7999928,526.935998 88.24,527.384 C89.6800072,527.832002 90.9759942,528.391997 92.128,529.064 C93.2800058,529.736003 94.255996,530.471996 95.056,531.272 C95.856004,532.072004 96.4479981,532.855996 96.832,533.624 L95.488,540.056 C93.8239917,538.327991 91.9840101,536.952005 89.968,535.928 C87.9519899,534.903995 85.7600118,534.392 83.392,534.392 C81.7279917,534.392 80.192007,534.743996 78.784,535.448 C77.375993,536.152004 76.672,537.367991 76.672,539.096 C76.672,540.568007 77.2799939,541.751996 78.496,542.648 C79.7120061,543.544004 81.119992,544.439996 82.72,545.336 L88.48,548.504 C92.0640179,550.42401 94.7359912,552.42399 96.496,554.504 C98.2560088,556.58401 99.136,559.191984 99.136,562.328 C99.136,564.37601 98.7520038,566.231992 97.984,567.896 C97.2159962,569.560008 96.1440069,570.999994 94.768,572.216 C93.3919931,573.432006 91.7120099,574.375997 89.728,575.048 C87.7439901,575.720003 85.5040125,576.056 83.008,576.056 C81.2799914,576.056 79.6320078,575.832002 78.064,575.384 C76.4959922,574.935998 75.0560066,574.344004 73.744,573.608 C72.4319934,572.871996 71.2960048,572.024005 70.336,571.064 C69.3759952,570.103995 68.6400026,569.112005 68.128,568.088 L69.664,561.56 C71.5840096,563.800011 73.7279882,565.431995 76.096,566.456 C78.4640118,567.480005 80.9919866,567.992 83.68,567.992 C84.6400048,567.992 85.615995,567.912001 86.608,567.752 C87.600005,567.591999 88.495996,567.288002 89.296,566.84 C90.096004,566.391998 90.7519974,565.832003 91.264,565.16 C91.7760026,564.487997 92.032,563.608005 92.032,562.52 C92.032,560.983992 91.3120072,559.624006 89.872,558.44 C88.4319928,557.255994 86.5920112,556.088006 84.352,554.936 L78.88,551.96 Z M112.096,595.448 L112.096,527.768 L119.008,527.768 L119.008,533.432 C119.392002,532.599996 120.047995,531.768004 120.976,530.936 C121.904005,530.103996 123.055993,529.384003 124.432,528.776 C125.808007,528.167997 127.343992,527.672002 129.04,527.288 C130.736008,526.903998 132.54399,526.712 134.464,526.712 C137.664016,526.712 140.703986,527.319994 143.584,528.536 C146.464014,529.752006 149.007989,531.447989 151.216,533.624 C153.424011,535.800011 155.183993,538.391985 156.496,541.4 C157.808007,544.408015 158.464,547.735982 158.464,551.384 C158.464,555.032018 157.808007,558.359985 156.496,561.368 C155.183993,564.376015 153.424011,566.967989 151.216,569.144 C149.007989,571.320011 146.464014,573.015994 143.584,574.232 C140.703986,575.448006 137.664016,576.056 134.464,576.056 C130.623981,576.056 127.312014,575.368007 124.528,573.992 C121.743986,572.615993 119.968004,571.064009 119.2,569.336 L119.2,595.448 L112.096,595.448 Z M151.36,551.384 C151.36,548.759987 150.928004,546.40801 150.064,544.328 C149.199996,542.24799 148.016008,540.472007 146.512,539 C145.007992,537.527993 143.200011,536.392004 141.088,535.592 C138.975989,534.791996 136.672012,534.392 134.176,534.392 C130.527982,534.392 127.312014,535.175992 124.528,536.744 C121.743986,538.312008 119.968004,540.535986 119.2,543.416 L119.2,559.352 C119.968004,562.232014 121.743986,564.455992 124.528,566.024 C127.312014,567.592008 130.527982,568.376 134.176,568.376 C136.672012,568.376 138.975989,567.976004 141.088,567.176 C143.200011,566.375996 145.007992,565.240007 146.512,563.768 C148.016008,562.295993 149.199996,560.52001 150.064,558.44 C150.928004,556.35999 151.36,554.008013 151.36,551.384 Z M171.328,527.768 L178.432,527.768 L178.432,575 L171.328,575 L171.328,527.768 Z M169.216,512.12 C169.216,510.519992 169.759995,509.176005 170.848,508.088 C171.936005,506.999995 173.279992,506.456 174.88,506.456 C176.480008,506.456 177.823995,506.999995 178.912,508.088 C180.000005,509.176005 180.544,510.519992 180.544,512.12 C180.544,513.720008 180.000005,515.063995 178.912,516.152 C177.823995,517.240005 176.480008,517.784 174.88,517.784 C173.279992,517.784 171.936005,517.240005 170.848,516.152 C169.759995,515.063995 169.216,513.720008 169.216,512.12 Z M219.424,536.504 C217.823992,535.095993 215.552015,534.392 212.608,534.392 C209.727986,534.392 207.32801,535.38399 205.408,537.368 C203.48799,539.35201 202.240003,541.719986 201.664,544.472 L201.664,575 L194.56,575 L194.56,527.768 L201.472,527.768 L201.472,533.72 C202.176004,531.73599 203.407991,530.072007 205.168,528.728 C206.928009,527.383993 209.343985,526.712 212.416,526.712 C214.208009,526.712 215.839993,527.015997 217.312,527.624 C218.784007,528.232003 219.871996,529.079995 220.576,530.168 L219.424,536.504 Z M231.232,527.768 L238.336,527.768 L238.336,575 L231.232,575 L231.232,527.768 Z M229.12,512.12 C229.12,510.519992 229.663995,509.176005 230.752,508.088 C231.840005,506.999995 233.183992,506.456 234.784,506.456 C236.384008,506.456 237.727995,506.999995 238.816,508.088 C239.904005,509.176005 240.448,510.519992 240.448,512.12 C240.448,513.720008 239.904005,515.063995 238.816,516.152 C237.727995,517.240005 236.384008,517.784 234.784,517.784 C233.183992,517.784 231.840005,517.240005 230.752,516.152 C229.663995,515.063995 229.12,513.720008 229.12,512.12 Z M283.072,570.104 C282.367996,571.768008 281.00801,573.175994 278.992,574.328 C276.97599,575.480006 274.528014,576.056 271.648,576.056 C267.423979,576.056 264.144012,574.776013 261.808,572.216 C259.471988,569.655987 258.304,565.624028 258.304,560.12 L258.304,535.256 L249.664,535.256 L249.664,532.952 L263.008,515.864 L265.312,515.864 L265.312,527.768 L282.784,527.768 L282.784,535.256 L265.408,535.256 L265.408,558.872 C265.408,562.136016 266.079993,564.471993 267.424,565.88 C268.768007,567.288007 270.719987,567.992 273.28,567.992 C275.26401,567.992 276.895994,567.576004 278.176,566.744 C279.456006,565.911996 280.543996,564.984005 281.44,563.96 L283.072,570.104 Z M318.592,551.384 C318.592,547.863982 319.231994,544.600015 320.512,541.592 C321.792006,538.583985 323.519989,535.976011 325.696,533.768 C327.872011,531.559989 330.415985,529.832006 333.328,528.584 C336.240015,527.335994 339.295984,526.712 342.496,526.712 C345.696016,526.712 348.751985,527.335994 351.664,528.584 C354.576015,529.832006 357.119989,531.559989 359.296,533.768 C361.472011,535.976011 363.199994,538.583985 364.48,541.592 C365.760006,544.600015 366.4,547.863982 366.4,551.384 C366.4,554.904018 365.760006,558.167985 364.48,561.176 C363.199994,564.184015 361.472011,566.791989 359.296,569 C357.119989,571.208011 354.576015,572.935994 351.664,574.184 C348.751985,575.432006 345.696016,576.056 342.496,576.056 C339.295984,576.056 336.240015,575.432006 333.328,574.184 C330.415985,572.935994 327.872011,571.208011 325.696,569 C323.519989,566.791989 321.792006,564.184015 320.512,561.176 C319.231994,558.167985 318.592,554.904018 318.592,551.384 Z M342.496,534.392 C340.063988,534.392 337.82401,534.807996 335.776,535.64 C333.72799,536.472004 331.968007,537.639992 330.496,539.144 C329.023993,540.648008 327.856004,542.43999 326.992,544.52 C326.127996,546.60001 325.696,548.887988 325.696,551.384 C325.696,553.880012 326.127996,556.16799 326.992,558.248 C327.856004,560.32801 329.023993,562.119992 330.496,563.624 C331.968007,565.128008 333.72799,566.295996 335.776,567.128 C337.82401,567.960004 340.063988,568.376 342.496,568.376 C344.864012,568.376 347.08799,567.960004 349.168,567.128 C351.24801,566.295996 353.023993,565.128008 354.496,563.624 C355.968007,562.119992 357.135996,560.32801 358,558.248 C358.864004,556.16799 359.296,553.880012 359.296,551.384 C359.296,548.887988 358.864004,546.60001 358,544.52 C357.135996,542.43999 355.968007,540.648008 354.496,539.144 C353.023993,537.639992 351.24801,536.472004 349.168,535.64 C347.08799,534.807996 344.864012,534.392 342.496,534.392 Z M407.872,515.768 C407.039996,514.743995 405.872008,513.816004 404.368,512.984 C402.863992,512.151996 401.184009,511.736 399.328,511.736 C396.959988,511.736 394.992008,512.503992 393.424,514.04 C391.855992,515.576008 391.072,517.783986 391.072,520.664 L391.072,527.768 L408.064,527.768 L408.064,535.448 L391.072,535.448 L391.072,575 L383.968,575 L383.968,535.448 L374.944,535.448 L374.944,527.768 L383.968,527.768 L383.968,519.608 C383.968,514.615975 385.199988,510.776013 387.664,508.088 C390.128012,505.399987 393.759976,504.056 398.56,504.056 C400.736011,504.056 402.79999,504.551995 404.752,505.544 C406.70401,506.536005 408.095996,507.863992 408.928,509.528 L407.872,515.768 Z M484.192,568.184 C483.679997,569.144005 482.928005,570.087995 481.936,571.016 C480.943995,571.944005 479.728007,572.775996 478.288,573.512 C476.847993,574.248004 475.184009,574.855998 473.296,575.336 C471.407991,575.816002 469.312012,576.056 467.008,576.056 C463.743984,576.056 460.640015,575.464006 457.696,574.28 C454.751985,573.095994 452.160011,571.432011 449.92,569.288 C447.679989,567.143989 445.888007,564.552015 444.544,561.512 C443.199993,558.471985 442.528,555.096019 442.528,551.384 C442.528,547.671981 443.199993,544.312015 444.544,541.304 C445.888007,538.295985 447.679989,535.704011 449.92,533.528 C452.160011,531.351989 454.751985,529.672006 457.696,528.488 C460.640015,527.303994 463.743984,526.712 467.008,526.712 C469.184011,526.712 471.183991,526.935998 473.008,527.384 C474.832009,527.832002 476.463993,528.423996 477.904,529.16 C479.344007,529.896004 480.559995,530.727995 481.552,531.656 C482.544005,532.584005 483.295997,533.527995 483.808,534.488 L482.08,540.248 C480.671993,538.775993 478.784012,537.432006 476.416,536.216 C474.047988,534.999994 471.360015,534.392 468.352,534.392 C465.599986,534.392 463.072012,534.791996 460.768,535.592 C458.463988,536.392004 456.496008,537.543992 454.864,539.048 C453.231992,540.552008 451.952005,542.34399 451.024,544.424 C450.095995,546.50401 449.632,548.823987 449.632,551.384 C449.632,553.944013 450.095995,556.26399 451.024,558.344 C451.952005,560.42401 453.247992,562.215992 454.912,563.72 C456.576008,565.224008 458.559988,566.375996 460.864,567.176 C463.168012,567.976004 465.727986,568.376 468.544,568.376 C471.808016,568.376 474.575989,567.768006 476.848,566.552 C479.120011,565.335994 480.991993,563.960008 482.464,562.424 L484.192,568.184 Z M497.056,527.768 L504.16,527.768 L504.16,575 L497.056,575 L497.056,527.768 Z M494.944,512.12 C494.944,510.519992 495.487995,509.176005 496.576,508.088 C497.664005,506.999995 499.007992,506.456 500.608,506.456 C502.208008,506.456 503.551995,506.999995 504.64,508.088 C505.728005,509.176005 506.272,510.519992 506.272,512.12 C506.272,513.720008 505.728005,515.063995 504.64,516.152 C503.551995,517.240005 502.208008,517.784 500.608,517.784 C499.007992,517.784 497.664005,517.240005 496.576,516.152 C495.487995,515.063995 494.944,513.720008 494.944,512.12 Z M532.864,575 L513.952,527.768 L521.92,527.768 L537.088,566.072 L552.16,527.768 L560.224,527.768 L541.216,575 L532.864,575 Z M570.208,527.768 L577.312,527.768 L577.312,575 L570.208,575 L570.208,527.768 Z M568.096,512.12 C568.096,510.519992 568.639995,509.176005 569.728,508.088 C570.816005,506.999995 572.159992,506.456 573.76,506.456 C575.360008,506.456 576.703995,506.999995 577.792,508.088 C578.880005,509.176005 579.424,510.519992 579.424,512.12 C579.424,513.720008 578.880005,515.063995 577.792,516.152 C576.703995,517.240005 575.360008,517.784 573.76,517.784 C572.159992,517.784 570.816005,517.240005 569.728,516.152 C568.639995,515.063995 568.096,513.720008 568.096,512.12 Z M593.44,505.112 L600.544,505.112 L600.544,575 L593.44,575 L593.44,505.112 Z M616.672,527.768 L623.776,527.768 L623.776,575 L616.672,575 L616.672,527.768 Z M614.56,512.12 C614.56,510.519992 615.103995,509.176005 616.192,508.088 C617.280005,506.999995 618.623992,506.456 620.224,506.456 C621.824008,506.456 623.167995,506.999995 624.256,508.088 C625.344005,509.176005 625.888,510.519992 625.888,512.12 C625.888,513.720008 625.344005,515.063995 624.256,516.152 C623.167995,517.240005 621.824008,517.784 620.224,517.784 C618.623992,517.784 617.280005,517.240005 616.192,516.152 C615.103995,515.063995 614.56,513.720008 614.56,512.12 Z M637.888,527.768 L668.8,527.768 L668.8,533.816 L646.336,567.32 L669.952,567.32 L669.952,575 L637.12,575 L637.12,568.184 L659.008,535.448 L637.888,535.448 L637.888,527.768 Z M699.808,526.712 C702.688014,526.712 705.359988,527.111996 707.824,527.912 C710.288012,528.712004 712.399991,529.879992 714.16,531.416 C715.920009,532.952008 717.311995,534.871988 718.336,537.176 C719.360005,539.480012 719.872,542.103985 719.872,545.048 L719.872,575 L712.96,575 L712.96,570.488 C711.743994,572.152008 709.856013,573.495995 707.296,574.52 C704.735987,575.544005 701.952015,576.056 698.944,576.056 C693.055971,576.056 688.448017,574.680014 685.12,571.928 C681.791983,569.175986 680.128,565.400024 680.128,560.6 C680.128,558.295988 680.607995,556.216009 681.568,554.36 C682.528005,552.503991 683.855992,550.920007 685.552,549.608 C687.248008,548.295993 689.247988,547.304003 691.552,546.632 C693.856012,545.959997 696.351987,545.624 699.04,545.624 C699.936004,545.624 700.975994,545.687999 702.16,545.816 C703.344006,545.944001 704.575994,546.183998 705.856,546.536 C707.136006,546.888002 708.383994,547.335997 709.6,547.88 C710.816006,548.424003 711.871996,549.111996 712.768,549.944 L712.768,546.968 C712.768,542.615978 711.472013,539.43201 708.88,537.416 C706.287987,535.39999 703.072019,534.392 699.232,534.392 C696.223985,534.392 693.440013,534.999994 690.88,536.216 C688.319987,537.432006 686.336007,538.967991 684.928,540.824 L683.008,534.488 C683.648003,533.399995 684.543994,532.392005 685.696,531.464 C686.848006,530.535995 688.159993,529.720004 689.632,529.016 C691.104007,528.311996 692.703991,527.752002 694.432,527.336 C696.160009,526.919998 697.951991,526.712 699.808,526.712 Z M712.768,558.2 C711.871996,556.535992 710.192012,555.304004 707.728,554.504 C705.263988,553.703996 702.560015,553.304 699.616,553.304 C695.775981,553.304 692.752011,553.959993 690.544,555.272 C688.335989,556.584007 687.232,558.359989 687.232,560.6 C687.232,562.776011 688.27199,564.615992 690.352,566.12 C692.43201,567.624008 695.51998,568.376 699.616,568.376 C702.624015,568.376 705.343988,567.832005 707.776,566.744 C710.208012,565.655995 711.871996,564.248009 712.768,562.52 L712.768,558.2 Z M764.32,570.104 C763.615996,571.768008 762.25601,573.175994 760.24,574.328 C758.22399,575.480006 755.776014,576.056 752.896,576.056 C748.671979,576.056 745.392012,574.776013 743.056,572.216 C740.719988,569.655987 739.552,565.624028 739.552,560.12 L739.552,535.256 L730.912,535.256 L730.912,532.952 L744.256,515.864 L746.56,515.864 L746.56,527.768 L764.032,527.768 L764.032,535.256 L746.656,535.256 L746.656,558.872 C746.656,562.136016 747.327993,564.471993 748.672,565.88 C750.016007,567.288007 751.967987,567.992 754.528,567.992 C756.51201,567.992 758.143994,567.576004 759.424,566.744 C760.704006,565.911996 761.791996,564.984005 762.688,563.96 L764.32,570.104 Z M776.992,527.768 L784.096,527.768 L784.096,575 L776.992,575 L776.992,527.768 Z M774.88,512.12 C774.88,510.519992 775.423995,509.176005 776.512,508.088 C777.600005,506.999995 778.943992,506.456 780.544,506.456 C782.144008,506.456 783.487995,506.999995 784.576,508.088 C785.664005,509.176005 786.208,510.519992 786.208,512.12 C786.208,513.720008 785.664005,515.063995 784.576,516.152 C783.487995,517.240005 782.144008,517.784 780.544,517.784 C778.943992,517.784 777.600005,517.240005 776.512,516.152 C775.423995,515.063995 774.88,513.720008 774.88,512.12 Z M796.96,551.384 C796.96,547.863982 797.599994,544.600015 798.88,541.592 C800.160006,538.583985 801.887989,535.976011 804.064,533.768 C806.240011,531.559989 808.783985,529.832006 811.696,528.584 C814.608015,527.335994 817.663984,526.712 820.864,526.712 C824.064016,526.712 827.119985,527.335994 830.032,528.584 C832.944015,529.832006 835.487989,531.559989 837.664,533.768 C839.840011,535.976011 841.567994,538.583985 842.848,541.592 C844.128006,544.600015 844.768,547.863982 844.768,551.384 C844.768,554.904018 844.128006,558.167985 842.848,561.176 C841.567994,564.184015 839.840011,566.791989 837.664,569 C835.487989,571.208011 832.944015,572.935994 830.032,574.184 C827.119985,575.432006 824.064016,576.056 820.864,576.056 C817.663984,576.056 814.608015,575.432006 811.696,574.184 C808.783985,572.935994 806.240011,571.208011 804.064,569 C801.887989,566.791989 800.160006,564.184015 798.88,561.176 C797.599994,558.167985 796.96,554.904018 796.96,551.384 Z M820.864,534.392 C818.431988,534.392 816.19201,534.807996 814.144,535.64 C812.09599,536.472004 810.336007,537.639992 808.864,539.144 C807.391993,540.648008 806.224004,542.43999 805.36,544.52 C804.495996,546.60001 804.064,548.887988 804.064,551.384 C804.064,553.880012 804.495996,556.16799 805.36,558.248 C806.224004,560.32801 807.391993,562.119992 808.864,563.624 C810.336007,565.128008 812.09599,566.295996 814.144,567.128 C816.19201,567.960004 818.431988,568.376 820.864,568.376 C823.232012,568.376 825.45599,567.960004 827.536,567.128 C829.61601,566.295996 831.391993,565.128008 832.864,563.624 C834.336007,562.119992 835.503996,560.32801 836.368,558.248 C837.232004,556.16799 837.664,553.880012 837.664,551.384 C837.664,548.887988 837.232004,546.60001 836.368,544.52 C835.503996,542.43999 834.336007,540.648008 832.864,539.144 C831.391993,537.639992 829.61601,536.472004 827.536,535.64 C825.45599,534.807996 823.232012,534.392 820.864,534.392 Z M878.368,526.712 C880.864012,526.712 883.327988,527.143996 885.76,528.008 C888.192012,528.872004 890.351991,530.183991 892.24,531.944 C894.128009,533.704009 895.663994,535.927987 896.848,538.616 C898.032006,541.304013 898.624,544.503981 898.624,548.216 L898.624,575 L891.52,575 L891.52,548.6 C891.52,544.055977 890.304012,540.552012 887.872,538.088 C885.439988,535.623988 882.304019,534.392 878.464,534.392 C876.863992,534.392 875.312008,534.647997 873.808,535.16 C872.303992,535.672003 870.928006,536.359996 869.68,537.224 C868.431994,538.088004 867.392004,539.095994 866.56,540.248 C865.727996,541.400006 865.184001,542.647993 864.928,543.992 L864.928,575 L857.824,575 L857.824,527.768 L864.736,527.768 L864.736,533.528 C865.376003,531.671991 866.943988,530.072007 869.44,528.728 C871.936012,527.383993 874.911983,526.712 878.368,526.712 Z M913.888,569.72 C913.888,567.991991 914.511994,566.504006 915.76,565.256 C917.008006,564.007994 918.495991,563.384 920.224,563.384 C921.952009,563.384 923.439994,564.007994 924.688,565.256 C925.936006,566.504006 926.56,567.991991 926.56,569.72 C926.56,571.448009 925.936006,572.935994 924.688,574.184 C923.439994,575.432006 921.952009,576.056 920.224,576.056 C918.495991,576.056 917.008006,575.432006 915.76,574.184 C914.511994,572.935994 913.888,571.448009 913.888,569.72 Z" id="From-the-first-day-t"></path>
        </g>
    </g>
</svg>